<svg width="51" height="51" viewBox="0 0 51 51" fill="none" xmlns="http://www.w3.org/2000/svg">
<g clip-path="url(#clip0_1_209)">
<path d="M50.8685 19.864H0.868622V9.8065C0.868622 9.33043 1.25466 8.9444 1.73073 8.9444H50.0065C50.4826 8.9444 50.8686 9.33043 50.8686 9.8065L50.8685 19.864Z" fill="#FFE15A"/>
<path d="M50.0064 41.7031H1.73073C1.25466 41.7031 0.868622 41.317 0.868622 40.841V30.7836H50.8685V40.841C50.8685 41.3171 50.4825 41.7031 50.0064 41.7031Z" fill="#FF4B55"/>
<path d="M50.8685 19.8638H0.868622V30.7828H50.8685V19.8638Z" fill="#41479B"/>
<path d="M18.2659 27.423L18.4819 28.0708L19.1647 28.076C19.253 28.0767 19.2898 28.1895 19.2187 28.2421L18.6694 28.6476L18.8754 29.2987C18.9021 29.383 18.8061 29.4527 18.7341 29.4012L18.1786 29.0042L17.6232 29.4012C17.5513 29.4526 17.4553 29.3829 17.4818 29.2987L17.6878 28.6476L17.1386 28.2421C17.0675 28.1896 17.1041 28.0767 17.1926 28.076L17.8753 28.0708L18.0913 27.423C18.1193 27.3392 18.238 27.3392 18.2659 27.423Z" fill="#F5F5F5"/>
<path d="M19.5924 25.361L19.4767 26.0339L20.0759 26.3613C20.1534 26.4037 20.1324 26.5204 20.0449 26.533L19.3691 26.6309L19.243 27.3019C19.2266 27.3887 19.1092 27.4049 19.07 27.3256L18.7682 26.7131L18.0909 26.8005C18.0032 26.8119 17.9516 26.705 18.0149 26.6433L18.5042 26.1669L18.2118 25.5499C18.174 25.4701 18.2596 25.3879 18.3378 25.4291L18.942 25.7472L19.4386 25.2785C19.5028 25.2178 19.6073 25.2739 19.5924 25.361Z" fill="#F5F5F5"/>
<path d="M21.2711 23.5563L20.9506 24.1592L21.4173 24.6576C21.4777 24.7221 21.4213 24.8264 21.3342 24.811L20.6616 24.6925L20.3318 25.2905C20.2891 25.3678 20.1724 25.3464 20.1601 25.2589L20.065 24.5828L19.3944 24.4539C19.3076 24.4372 19.292 24.3196 19.3715 24.2808L19.9851 23.9814L19.9005 23.3039C19.8894 23.2162 19.9965 23.165 20.0579 23.2286L20.5323 23.7196L21.1505 23.4297C21.2307 23.3922 21.3125 23.4782 21.2711 23.5563Z" fill="#F5F5F5"/>
<path d="M23.2911 22.4366L22.82 22.9309L23.1352 23.5366C23.176 23.615 23.0935 23.7002 23.0137 23.6619L22.3981 23.3665L21.9193 23.8534C21.8574 23.9165 21.7508 23.8643 21.7625 23.7767L21.8531 23.0998L21.2421 22.795C21.163 22.7555 21.1796 22.638 21.2665 22.6221L21.9382 22.4992L22.0392 21.8239C22.0523 21.7365 22.1692 21.716 22.2112 21.7938L22.5356 22.3946L23.2092 22.2821C23.2966 22.2677 23.352 22.3726 23.2911 22.4366Z" fill="#F5F5F5"/>
<path d="M25.6131 21.9177L25.0267 22.2677L25.1681 22.9357C25.1865 23.0222 25.0841 23.0823 25.0175 23.0241L24.5036 22.5747L23.9119 22.9155C23.8352 22.9596 23.7466 22.8809 23.7814 22.7996L24.0501 22.1717L23.543 21.7144C23.4774 21.6552 23.525 21.5465 23.613 21.5545L24.293 21.616L24.5714 20.9924C24.6074 20.9118 24.7255 20.9233 24.7451 21.0094L24.8968 21.6751L25.5758 21.7471C25.6634 21.7566 25.689 21.8724 25.6131 21.9177Z" fill="#F5F5F5"/>
<path d="M33.4729 27.423L33.2569 28.0708L32.5742 28.076C32.4858 28.0767 32.4491 28.1895 32.5202 28.2421L33.0694 28.6476L32.8634 29.2987C32.8368 29.383 32.9328 29.4527 33.0047 29.4012L33.5602 29.0042L34.1157 29.4012C34.1875 29.4526 34.2835 29.3829 34.257 29.2987L34.051 28.6476L34.6002 28.2421C34.6713 28.1896 34.6347 28.0767 34.5462 28.076L33.8635 28.0708L33.6475 27.423C33.6195 27.3392 33.5008 27.3392 33.4729 27.423Z" fill="#F5F5F5"/>
<path d="M32.1465 25.361L32.2623 26.0339L31.663 26.3613C31.5855 26.4037 31.6065 26.5204 31.694 26.533L32.3698 26.6309L32.496 27.3019C32.5124 27.3887 32.6298 27.4049 32.6689 27.3256L32.9708 26.7131L33.648 26.8005C33.7357 26.8119 33.7874 26.705 33.724 26.6433L33.2347 26.1669L33.5271 25.5499C33.5649 25.4701 33.4793 25.3879 33.4011 25.4291L32.7969 25.7472L32.3003 25.2785C32.2361 25.2178 32.1316 25.2739 32.1465 25.361Z" fill="#F5F5F5"/>
<path d="M30.4679 23.5563L30.7884 24.1592L30.3217 24.6576C30.2612 24.7221 30.3177 24.8264 30.4048 24.811L31.0773 24.6925L31.4071 25.2905C31.4498 25.3678 31.5665 25.3464 31.5788 25.2589L31.6739 24.5828L32.3445 24.4539C32.4313 24.4372 32.447 24.3196 32.3675 24.2808L31.7538 23.9814L31.8385 23.3039C31.8495 23.2162 31.7425 23.165 31.6811 23.2286L31.2066 23.7196L30.5885 23.4297C30.5082 23.3922 30.4265 23.4782 30.4679 23.5563Z" fill="#F5F5F5"/>
<path d="M28.4476 22.4366L28.9187 22.9309L28.6035 23.5366C28.5627 23.615 28.6452 23.7002 28.725 23.6619L29.3406 23.3665L29.8194 23.8534C29.8813 23.9165 29.9879 23.8643 29.9761 23.7767L29.8855 23.0998L30.4965 22.795C30.5756 22.7555 30.559 22.638 30.4721 22.6221L29.8004 22.4992L29.6994 21.8239C29.6863 21.7365 29.5694 21.716 29.5274 21.7938L29.203 22.3946L28.5295 22.2821C28.4421 22.2677 28.3867 22.3726 28.4476 22.4366Z" fill="#F5F5F5"/>
<path d="M26.1258 21.9177L26.7122 22.2677L26.5708 22.9357C26.5524 23.0222 26.6548 23.0823 26.7213 23.0241L27.2353 22.5747L27.827 22.9155C27.9037 22.9596 27.9923 22.8809 27.9575 22.7996L27.6888 22.1717L28.1958 21.7144C28.2615 21.6552 28.2139 21.5465 28.1259 21.5545L27.4458 21.616L27.1675 20.9924C27.1315 20.9118 27.0134 20.9233 26.9938 21.0094L26.842 21.6751L26.163 21.7471C26.0754 21.7566 26.0499 21.8724 26.1258 21.9177Z" fill="#F5F5F5"/>
</g>
<defs>
<clipPath id="clip0_1_209">
<rect width="50" height="50" fill="white" transform="translate(0.869141 0.32373)"/>
</clipPath>
</defs>
</svg>
