<svg width="200" height="150" viewBox="0 0 200 150" fill="none" xmlns="http://www.w3.org/2000/svg">
<g clip-path="url(#clip0_507_326)">
<path d="M13.6 139L13.6 115.03H61.37L68.255 108.145V103.3L66.555 105H26.86L9.35 87.49L9.35 30.71L26.86 13.2L74.715 13.2L92.225 30.71V121.49L74.715 139H13.6ZM20.145 132.625H70.55L85.935 116.9V34.195L71.23 19.49L30.175 19.49L15.895 33.77L15.895 83.58L30.685 98.37H64.855L75.055 88.17V110.865L64.43 121.66H20.145V132.625ZM36.04 87.405L26.86 78.31L26.86 39.04L35.53 30.37H65.96L75.055 39.465V74.485L61.965 87.405H36.04ZM38.59 80.945H59.755L68.255 72.445V42.355L62.985 37.17H38.59L33.405 42.355L33.405 75.76L38.59 80.945ZM108.88 105V30.71L126.39 13.2H172.97L190.48 30.71L190.48 105H166.51L166.51 42.44L161.325 37.255H138.035L132.85 42.44L132.85 105H108.88ZM115.51 98.455H126.39V39.295L135.23 30.625H164.385L173.055 39.21L173.055 98.455H183.935L183.935 33.94L169.655 19.66H129.875L115.51 34.025V98.455Z" fill="white"/>
<path d="M13.6 139H12.6V140H13.6V139ZM13.6 115.03V114.03H12.6V115.03H13.6ZM61.37 115.03V116.03H61.7842L62.0771 115.737L61.37 115.03ZM68.255 108.145L68.9621 108.852L69.255 108.559V108.145H68.255ZM68.255 103.3H69.255V100.886L67.5479 102.593L68.255 103.3ZM66.555 105V106H66.9692L67.2621 105.707L66.555 105ZM26.86 105L26.1529 105.707L26.4458 106H26.86V105ZM9.35 87.49H8.35V87.9042L8.64289 88.1971L9.35 87.49ZM9.35 30.71L8.64289 30.0029L8.35 30.2958V30.71H9.35ZM26.86 13.2V12.2H26.4458L26.1529 12.4929L26.86 13.2ZM74.715 13.2L75.4221 12.4929L75.1292 12.2H74.715V13.2ZM92.225 30.71H93.225V30.2958L92.9321 30.0029L92.225 30.71ZM92.225 121.49L92.9321 122.197L93.225 121.904V121.49H92.225ZM74.715 139V140H75.1292L75.4221 139.707L74.715 139ZM20.145 132.625H19.145V133.625H20.145V132.625ZM70.55 132.625V133.625H70.9706L71.2648 133.324L70.55 132.625ZM85.935 116.9L86.6498 117.599L86.935 117.308V116.9H85.935ZM85.935 34.195H86.935V33.7808L86.6421 33.4879L85.935 34.195ZM71.23 19.49L71.9371 18.7829L71.6442 18.49H71.23V19.49ZM30.175 19.49V18.49H29.7608L29.4679 18.7829L30.175 19.49ZM15.895 33.77L15.1879 33.0629L14.895 33.3558V33.77H15.895ZM15.895 83.58H14.895V83.9942L15.1879 84.2871L15.895 83.58ZM30.685 98.37L29.9779 99.0771L30.2708 99.37H30.685V98.37ZM64.855 98.37V99.37H65.2692L65.5621 99.0771L64.855 98.37ZM75.055 88.17H76.055V85.7558L74.3479 87.4629L75.055 88.17ZM75.055 110.865L75.7677 111.566L76.055 111.275V110.865H75.055ZM64.43 121.66V122.66H64.8489L65.1427 122.361L64.43 121.66ZM20.145 121.66V120.66H19.145V121.66H20.145ZM36.04 87.405L35.3362 88.1154L35.6285 88.405H36.04V87.405ZM26.86 78.31H25.86V78.7269L26.1562 79.0204L26.86 78.31ZM26.86 39.04L26.1529 38.3329L25.86 38.6258V39.04H26.86ZM35.53 30.37V29.37H35.1158L34.8229 29.6629L35.53 30.37ZM65.96 30.37L66.6671 29.6629L66.3742 29.37H65.96V30.37ZM75.055 39.465H76.055V39.0508L75.7621 38.7579L75.055 39.465ZM75.055 74.485L75.7575 75.1967L76.055 74.903V74.485H75.055ZM61.965 87.405V88.405H62.3754L62.6675 88.1167L61.965 87.405ZM38.59 80.945L37.8829 81.6521L38.1758 81.945H38.59V80.945ZM59.755 80.945V81.945H60.1692L60.4621 81.6521L59.755 80.945ZM68.255 72.445L68.9621 73.1521L69.255 72.8592V72.445H68.255ZM68.255 42.355H69.255V41.936L68.9563 41.6422L68.255 42.355ZM62.985 37.17L63.6863 36.4572L63.3945 36.17H62.985V37.17ZM38.59 37.17V36.17H38.1758L37.8829 36.4629L38.59 37.17ZM33.405 42.355L32.6979 41.6479L32.405 41.9408V42.355H33.405ZM33.405 75.76H32.405V76.1742L32.6979 76.4671L33.405 75.76ZM14.6 139L14.6 115.03H12.6L12.6 139H14.6ZM13.6 116.03H61.37V114.03H13.6V116.03ZM62.0771 115.737L68.9621 108.852L67.5479 107.438L60.6629 114.323L62.0771 115.737ZM69.255 108.145V103.3H67.255V108.145H69.255ZM67.5479 102.593L65.8479 104.293L67.2621 105.707L68.9621 104.007L67.5479 102.593ZM66.555 104H26.86V106H66.555V104ZM27.5671 104.293L10.0571 86.7829L8.64289 88.1971L26.1529 105.707L27.5671 104.293ZM10.35 87.49L10.35 30.71H8.35L8.35 87.49H10.35ZM10.0571 31.4171L27.5671 13.9071L26.1529 12.4929L8.64289 30.0029L10.0571 31.4171ZM26.86 14.2L74.715 14.2V12.2L26.86 12.2V14.2ZM74.0079 13.9071L91.5179 31.4171L92.9321 30.0029L75.4221 12.4929L74.0079 13.9071ZM91.225 30.71V121.49H93.225V30.71H91.225ZM91.5179 120.783L74.0079 138.293L75.4221 139.707L92.9321 122.197L91.5179 120.783ZM74.715 138H13.6V140H74.715V138ZM20.145 133.625H70.55V131.625H20.145V133.625ZM71.2648 133.324L86.6498 117.599L85.2202 116.201L69.8352 131.926L71.2648 133.324ZM86.935 116.9V34.195H84.935V116.9H86.935ZM86.6421 33.4879L71.9371 18.7829L70.5229 20.1971L85.2279 34.9021L86.6421 33.4879ZM71.23 18.49L30.175 18.49V20.49L71.23 20.49V18.49ZM29.4679 18.7829L15.1879 33.0629L16.6021 34.4771L30.8821 20.1971L29.4679 18.7829ZM14.895 33.77L14.895 83.58H16.895L16.895 33.77H14.895ZM15.1879 84.2871L29.9779 99.0771L31.3921 97.6629L16.6021 82.8729L15.1879 84.2871ZM30.685 99.37H64.855V97.37H30.685V99.37ZM65.5621 99.0771L75.7621 88.8771L74.3479 87.4629L64.1479 97.6629L65.5621 99.0771ZM74.055 88.17V110.865H76.055V88.17H74.055ZM74.3423 110.164L63.7173 120.959L65.1427 122.361L75.7677 111.566L74.3423 110.164ZM64.43 120.66H20.145V122.66H64.43V120.66ZM19.145 121.66V132.625H21.145V121.66H19.145ZM36.7438 86.6946L27.5638 77.5996L26.1562 79.0204L35.3362 88.1154L36.7438 86.6946ZM27.86 78.31L27.86 39.04H25.86L25.86 78.31H27.86ZM27.5671 39.7471L36.2371 31.0771L34.8229 29.6629L26.1529 38.3329L27.5671 39.7471ZM35.53 31.37H65.96V29.37H35.53V31.37ZM65.2529 31.0771L74.3479 40.1721L75.7621 38.7579L66.6671 29.6629L65.2529 31.0771ZM74.055 39.465V74.485H76.055V39.465H74.055ZM74.3525 73.7733L61.2625 86.6933L62.6675 88.1167L75.7575 75.1967L74.3525 73.7733ZM61.965 86.405H36.04V88.405H61.965V86.405ZM38.59 81.945H59.755V79.945H38.59V81.945ZM60.4621 81.6521L68.9621 73.1521L67.5479 71.7379L59.0479 80.2379L60.4621 81.6521ZM69.255 72.445V42.355H67.255V72.445H69.255ZM68.9563 41.6422L63.6863 36.4572L62.2837 37.8828L67.5537 43.0678L68.9563 41.6422ZM62.985 36.17H38.59V38.17H62.985V36.17ZM37.8829 36.4629L32.6979 41.6479L34.1121 43.0621L39.2971 37.8771L37.8829 36.4629ZM32.405 42.355L32.405 75.76H34.405L34.405 42.355H32.405ZM32.6979 76.4671L37.8829 81.6521L39.2971 80.2379L34.1121 75.0529L32.6979 76.4671ZM108.88 105H107.88V106H108.88V105ZM108.88 30.71L108.173 30.0029L107.88 30.2958V30.71H108.88ZM126.39 13.2V12.2H125.975L125.683 12.4929L126.39 13.2ZM172.97 13.2L173.677 12.4929L173.384 12.2H172.97V13.2ZM190.48 30.71H191.48V30.2958L191.187 30.0029L190.48 30.71ZM190.48 105V106H191.48V105H190.48ZM166.51 105H165.51V106H166.51V105ZM166.51 42.44H167.51V42.0258L167.217 41.7329L166.51 42.44ZM161.325 37.255L162.032 36.5479L161.739 36.255H161.325V37.255ZM138.035 37.255V36.255H137.62L137.328 36.5479L138.035 37.255ZM132.85 42.44L132.143 41.7329L131.85 42.0258V42.44H132.85ZM132.85 105V106H133.85V105H132.85ZM115.51 98.455H114.51V99.455H115.51V98.455ZM126.39 98.455V99.455H127.39V98.455H126.39ZM126.39 39.295L125.689 38.5811L125.39 38.8751V39.295H126.39ZM135.23 30.625V29.625H134.821L134.529 29.9111L135.23 30.625ZM164.385 30.625L165.088 29.9144L164.796 29.625H164.385V30.625ZM173.055 39.21H174.055V38.7929L173.758 38.4994L173.055 39.21ZM173.055 98.455H172.055V99.455H173.055V98.455ZM183.935 98.455V99.455H184.935V98.455H183.935ZM183.935 33.94H184.935V33.5258L184.642 33.2329L183.935 33.94ZM169.655 19.66L170.362 18.9529L170.069 18.66H169.655V19.66ZM129.875 19.66V18.66H129.46L129.168 18.9529L129.875 19.66ZM115.51 34.025L114.803 33.3179L114.51 33.6108V34.025H115.51ZM109.88 105V30.71H107.88V105H109.88ZM109.587 31.4171L127.097 13.9071L125.683 12.4929L108.173 30.0029L109.587 31.4171ZM126.39 14.2H172.97V12.2H126.39V14.2ZM172.263 13.9071L189.773 31.4171L191.187 30.0029L173.677 12.4929L172.263 13.9071ZM189.48 30.71L189.48 105H191.48L191.48 30.71H189.48ZM190.48 104H166.51V106H190.48V104ZM167.51 105L167.51 42.44H165.51L165.51 105H167.51ZM167.217 41.7329L162.032 36.5479L160.618 37.9621L165.803 43.1471L167.217 41.7329ZM161.325 36.255H138.035V38.255H161.325V36.255ZM137.328 36.5479L132.143 41.7329L133.557 43.1471L138.742 37.9621L137.328 36.5479ZM131.85 42.44L131.85 105H133.85L133.85 42.44H131.85ZM132.85 104H108.88V106H132.85V104ZM115.51 99.455H126.39V97.455H115.51V99.455ZM127.39 98.455V39.295H125.39V98.455H127.39ZM127.09 40.0089L135.93 31.3389L134.529 29.9111L125.689 38.5811L127.09 40.0089ZM135.23 31.625H164.385V29.625H135.23V31.625ZM163.681 31.3356L172.351 39.9206L173.758 38.4994L165.088 29.9144L163.681 31.3356ZM172.055 39.21L172.055 98.455H174.055L174.055 39.21H172.055ZM173.055 99.455H183.935V97.455H173.055V99.455ZM184.935 98.455L184.935 33.94H182.935L182.935 98.455H184.935ZM184.642 33.2329L170.362 18.9529L168.948 20.3671L183.228 34.6471L184.642 33.2329ZM169.655 18.66H129.875V20.66H169.655V18.66ZM129.168 18.9529L114.803 33.3179L116.217 34.7321L130.582 20.3671L129.168 18.9529ZM114.51 34.025V98.455H116.51V34.025H114.51Z" fill="white"/>
</g>
<defs>
<clipPath id="clip0_507_326">
<rect width="200" height="150" fill="white"/>
</clipPath>
</defs>
</svg>
