<svg width="200" height="200" viewBox="0 0 200 200" fill="none" xmlns="http://www.w3.org/2000/svg">
<path d="M88.496 65.8V73.992H73.52C74.7147 75.1867 75.824 76.8507 76.848 78.984C77.872 81.1173 78.384 83.6773 78.384 86.664C78.384 92.9787 75.9093 98.056 70.96 101.896C66.0107 105.736 58.8853 107.656 49.584 107.656C47.8773 107.656 46.4267 107.656 45.232 107.656C44.0373 107.571 42.7573 107.357 41.392 107.016C40.9653 107.869 40.4107 108.808 39.728 109.832C39.1307 110.771 38.832 111.795 38.832 112.904C38.832 114.696 39.9413 116.061 42.16 117C44.3787 117.853 47.152 118.664 50.48 119.432C53.808 120.115 57.4347 120.84 61.36 121.608C65.2853 122.291 68.912 123.357 72.24 124.808C75.6533 126.173 78.4693 128.008 80.688 130.312C82.9067 132.616 84.016 135.645 84.016 139.4C84.016 142.643 83.1627 145.459 81.456 147.848C79.8347 150.323 77.488 152.328 74.416 153.864C71.4293 155.485 67.8453 156.68 63.664 157.448C59.4827 158.216 54.9173 158.6 49.968 158.6C39.3013 158.6 31.3227 157.192 26.032 154.376C20.7413 151.56 18.096 147.677 18.096 142.728C18.096 137.949 19.7173 134.28 22.96 131.72C26.2027 129.16 30.768 127.027 36.656 125.32C34.4373 124.381 32.6453 123.357 31.28 122.248C29.9147 121.139 29.232 119.475 29.232 117.256C29.232 116.232 29.488 115.208 30 114.184C30.512 113.075 31.1947 112.051 32.048 111.112C32.9013 110.088 33.84 109.192 34.864 108.424C35.888 107.571 36.8693 106.888 37.808 106.376C32.3467 104.925 28.1227 102.451 25.136 98.952C22.2347 95.4533 20.784 91.272 20.784 86.408C20.784 80.1787 23.216 75.1867 28.08 71.432C32.944 67.6773 40.112 65.8 49.584 65.8H88.496ZM70.576 142.472C70.576 139.656 69.552 137.395 67.504 135.688C65.5413 134.067 63.024 132.744 59.952 131.72C56.9653 130.611 53.7227 129.715 50.224 129.032C46.7253 128.349 43.44 127.539 40.368 126.6C36.784 128.733 34.3947 130.867 33.2 133C32.0907 135.219 31.536 137.565 31.536 140.04C31.536 143.624 33.328 146.611 36.912 149C40.496 151.389 45.7013 152.584 52.528 152.584C56.0267 152.584 58.928 152.285 61.232 151.688C63.536 151.176 65.3707 150.451 66.736 149.512C68.1867 148.573 69.168 147.507 69.68 146.312C70.2773 145.117 70.576 143.837 70.576 142.472ZM34.224 86.408C34.224 88.6267 34.48 90.6747 34.992 92.552C35.504 94.4293 36.3147 96.0507 37.424 97.416C38.6187 98.696 40.1973 99.72 42.16 100.488C44.1227 101.256 46.5973 101.64 49.584 101.64C55.0453 101.64 58.9707 100.275 61.36 97.544C63.7493 94.728 64.944 91.016 64.944 86.408C64.944 84.616 64.8587 83.1227 64.688 81.928C64.6027 80.7333 64.432 79.6667 64.176 78.728C64.0053 77.7893 63.792 76.9787 63.536 76.296C63.28 75.528 63.024 74.76 62.768 73.992C60.8053 73.1387 58.7147 72.584 56.496 72.328C54.2773 71.9867 51.9733 71.816 49.584 71.816C43.7813 71.816 39.7707 73.0107 37.552 75.4C35.3333 77.7893 34.224 81.4587 34.224 86.408ZM183.318 133H151.958V126.6H160.406V94.472C160.406 87.7307 159.382 82.4827 157.334 78.728C155.286 74.9733 151.531 73.096 146.07 73.096C143.681 73.096 141.462 73.48 139.414 74.248C137.451 75.016 135.659 76.04 134.038 77.32C132.502 78.6 131.137 80.0933 129.942 81.8C128.833 83.5067 127.979 85.2987 127.382 87.176V126.6H135.83V133H104.47V126.6H113.942V72.2H104.47V65.8H127.382V79.112H127.51C129.473 75.016 132.331 71.56 136.086 68.744C139.926 65.928 144.534 64.52 149.91 64.52C153.75 64.52 157.163 64.9467 160.15 65.8C163.137 66.568 165.611 68.0187 167.574 70.152C169.622 72.2853 171.158 75.144 172.182 78.728C173.291 82.312 173.846 86.8773 173.846 92.424V126.6H183.318V133Z" fill="#44403C"/>
<path d="M88.496 65.8H94.496V59.8H88.496V65.8ZM88.496 73.992V79.992H94.496V73.992H88.496ZM73.52 73.992V67.992H59.0347L69.2774 78.2346L73.52 73.992ZM45.232 107.656L44.8045 113.641L45.018 113.656H45.232V107.656ZM41.392 107.016L42.8472 101.195L38.1779 100.028L36.0254 104.333L41.392 107.016ZM39.728 109.832L34.7357 106.504L34.7003 106.557L34.666 106.611L39.728 109.832ZM42.16 117L39.8222 122.526L39.9135 122.564L40.0061 122.6L42.16 117ZM50.48 119.432L49.1308 125.278L49.2024 125.295L49.2743 125.31L50.48 119.432ZM61.36 121.608L60.2079 127.496L60.2698 127.508L60.332 127.519L61.36 121.608ZM72.24 124.808L69.8425 130.308L69.9265 130.345L70.0117 130.379L72.24 124.808ZM80.688 130.312L76.3661 134.474L76.3661 134.474L80.688 130.312ZM81.456 147.848L76.5736 144.361L76.5034 144.459L76.4372 144.56L81.456 147.848ZM74.416 153.864L71.7327 148.497L71.6423 148.543L71.5535 148.591L74.416 153.864ZM63.664 157.448L64.7479 163.349L64.7479 163.349L63.664 157.448ZM26.032 154.376L23.2129 159.672L23.2129 159.672L26.032 154.376ZM22.96 131.72L19.2421 127.011L19.2421 127.011L22.96 131.72ZM36.656 125.32L38.3264 131.083L54.5565 126.378L38.9938 119.794L36.656 125.32ZM31.28 122.248L35.0636 117.591L35.0636 117.591L31.28 122.248ZM30 114.184L35.3666 116.867L35.4085 116.783L35.4478 116.698L30 114.184ZM32.048 111.112L36.4876 115.148L36.5746 115.052L36.6573 114.953L32.048 111.112ZM34.864 108.424L38.464 113.224L38.587 113.132L38.7051 113.033L34.864 108.424ZM37.808 106.376L40.6811 111.643L53.8885 104.439L39.3483 100.577L37.808 106.376ZM25.136 98.952L20.5175 102.782L20.5448 102.815L20.5726 102.848L25.136 98.952ZM28.08 71.432L24.4137 66.6825L24.4137 66.6825L28.08 71.432ZM67.504 135.688L71.3451 131.079L71.3352 131.07L71.3253 131.062L67.504 135.688ZM59.952 131.72L57.8629 137.345L57.9582 137.38L58.0546 137.412L59.952 131.72ZM50.224 129.032L51.3731 123.143L51.3731 123.143L50.224 129.032ZM40.368 126.6L42.1213 120.862L39.5813 120.086L37.2991 121.444L40.368 126.6ZM33.2 133L27.965 130.068L27.8963 130.191L27.8334 130.317L33.2 133ZM36.912 149L40.2402 144.008L40.2402 144.008L36.912 149ZM61.232 151.688L59.9304 145.831L59.8279 145.854L59.7262 145.88L61.232 151.688ZM66.736 149.512L63.4765 144.475L63.406 144.52L63.3368 144.568L66.736 149.512ZM69.68 146.312L64.3134 143.629L64.2346 143.786L64.1651 143.948L69.68 146.312ZM37.424 97.416L32.7673 101.2L32.8972 101.359L33.0377 101.51L37.424 97.416ZM42.16 100.488L44.3464 94.9005L42.16 100.488ZM61.36 97.544L65.8755 101.495L65.9055 101.461L65.9351 101.426L61.36 97.544ZM64.688 81.928L58.7033 82.3555L58.7183 82.5668L58.7483 82.7765L64.688 81.928ZM64.176 78.728L58.2728 79.8013L58.3192 80.0565L58.3874 80.3067L64.176 78.728ZM63.536 76.296L57.8439 78.1934L57.879 78.2987L57.918 78.4027L63.536 76.296ZM62.768 73.992L68.4601 72.0946L67.614 69.5564L65.1604 68.4896L62.768 73.992ZM56.496 72.328L55.5837 78.2582L55.6957 78.2755L55.8083 78.2884L56.496 72.328ZM37.552 75.4L41.9488 79.4827L41.9488 79.4827L37.552 75.4ZM82.496 65.8V73.992H94.496V65.8H82.496ZM88.496 67.992H73.52V79.992H88.496V67.992ZM69.2774 78.2346C69.8434 78.8007 70.5997 79.8322 71.4389 81.5804L82.2571 76.3876C81.0483 73.8692 79.5859 71.5727 77.7626 69.7494L69.2774 78.2346ZM71.4389 81.5804C71.9858 82.7197 72.384 84.3473 72.384 86.664H84.384C84.384 83.0074 83.7582 79.5149 82.2571 76.3876L71.4389 81.5804ZM72.384 86.664C72.384 91.1421 70.7527 94.4627 67.282 97.1555L74.638 106.637C81.066 101.649 84.384 94.8152 84.384 86.664H72.384ZM67.282 97.1555C63.7869 99.8672 58.1722 101.656 49.584 101.656V113.656C59.5985 113.656 68.2344 111.605 74.638 106.637L67.282 97.1555ZM49.584 101.656C49.5807 101.656 49.5773 101.656 49.574 101.656C49.5707 101.656 49.5673 101.656 49.564 101.656C49.5607 101.656 49.5574 101.656 49.554 101.656C49.5507 101.656 49.5474 101.656 49.5441 101.656C49.5407 101.656 49.5374 101.656 49.5341 101.656C49.5308 101.656 49.5274 101.656 49.5241 101.656C49.5208 101.656 49.5175 101.656 49.5141 101.656C49.5108 101.656 49.5075 101.656 49.5042 101.656C49.5009 101.656 49.4976 101.656 49.4942 101.656C49.4909 101.656 49.4876 101.656 49.4843 101.656C49.481 101.656 49.4777 101.656 49.4744 101.656C49.471 101.656 49.4677 101.656 49.4644 101.656C49.4611 101.656 49.4578 101.656 49.4545 101.656C49.4512 101.656 49.4479 101.656 49.4446 101.656C49.4413 101.656 49.438 101.656 49.4347 101.656C49.4314 101.656 49.4281 101.656 49.4248 101.656C49.4215 101.656 49.4182 101.656 49.4149 101.656C49.4115 101.656 49.4083 101.656 49.405 101.656C49.4017 101.656 49.3984 101.656 49.3951 101.656C49.3918 101.656 49.3885 101.656 49.3852 101.656C49.3819 101.656 49.3786 101.656 49.3753 101.656C49.372 101.656 49.3687 101.656 49.3654 101.656C49.3621 101.656 49.3588 101.656 49.3556 101.656C49.3523 101.656 49.349 101.656 49.3457 101.656C49.3424 101.656 49.3391 101.656 49.3358 101.656C49.3325 101.656 49.3293 101.656 49.326 101.656C49.3227 101.656 49.3194 101.656 49.3161 101.656C49.3129 101.656 49.3096 101.656 49.3063 101.656C49.303 101.656 49.2997 101.656 49.2965 101.656C49.2932 101.656 49.2899 101.656 49.2866 101.656C49.2834 101.656 49.2801 101.656 49.2768 101.656C49.2735 101.656 49.2703 101.656 49.267 101.656C49.2637 101.656 49.2605 101.656 49.2572 101.656C49.2539 101.656 49.2507 101.656 49.2474 101.656C49.2441 101.656 49.2409 101.656 49.2376 101.656C49.2343 101.656 49.2311 101.656 49.2278 101.656C49.2245 101.656 49.2213 101.656 49.218 101.656C49.2148 101.656 49.2115 101.656 49.2082 101.656C49.205 101.656 49.2017 101.656 49.1985 101.656C49.1952 101.656 49.1919 101.656 49.1887 101.656C49.1854 101.656 49.1822 101.656 49.1789 101.656C49.1757 101.656 49.1724 101.656 49.1692 101.656C49.1659 101.656 49.1627 101.656 49.1594 101.656C49.1562 101.656 49.1529 101.656 49.1497 101.656C49.1464 101.656 49.1432 101.656 49.1399 101.656C49.1367 101.656 49.1334 101.656 49.1302 101.656C49.127 101.656 49.1237 101.656 49.1205 101.656C49.1172 101.656 49.114 101.656 49.1108 101.656C49.1075 101.656 49.1043 101.656 49.101 101.656C49.0978 101.656 49.0946 101.656 49.0913 101.656C49.0881 101.656 49.0849 101.656 49.0816 101.656C49.0784 101.656 49.0752 101.656 49.0719 101.656C49.0687 101.656 49.0655 101.656 49.0622 101.656C49.059 101.656 49.0558 101.656 49.0525 101.656C49.0493 101.656 49.0461 101.656 49.0429 101.656C49.0396 101.656 49.0364 101.656 49.0332 101.656C49.03 101.656 49.0267 101.656 49.0235 101.656C49.0203 101.656 49.0171 101.656 49.0139 101.656C49.0106 101.656 49.0074 101.656 49.0042 101.656C49.001 101.656 48.9978 101.656 48.9946 101.656C48.9913 101.656 48.9881 101.656 48.9849 101.656C48.9817 101.656 48.9785 101.656 48.9753 101.656C48.9721 101.656 48.9688 101.656 48.9656 101.656C48.9624 101.656 48.9592 101.656 48.956 101.656C48.9528 101.656 48.9496 101.656 48.9464 101.656C48.9432 101.656 48.94 101.656 48.9368 101.656C48.9336 101.656 48.9304 101.656 48.9272 101.656C48.924 101.656 48.9208 101.656 48.9175 101.656C48.9143 101.656 48.9111 101.656 48.908 101.656C48.9048 101.656 48.9016 101.656 48.8984 101.656C48.8952 101.656 48.892 101.656 48.8888 101.656C48.8856 101.656 48.8824 101.656 48.8792 101.656C48.876 101.656 48.8728 101.656 48.8696 101.656C48.8664 101.656 48.8632 101.656 48.86 101.656C48.8569 101.656 48.8537 101.656 48.8505 101.656C48.8473 101.656 48.8441 101.656 48.8409 101.656C48.8377 101.656 48.8346 101.656 48.8314 101.656C48.8282 101.656 48.825 101.656 48.8218 101.656C48.8186 101.656 48.8155 101.656 48.8123 101.656C48.8091 101.656 48.8059 101.656 48.8028 101.656C48.7996 101.656 48.7964 101.656 48.7932 101.656C48.79 101.656 48.7869 101.656 48.7837 101.656C48.7805 101.656 48.7774 101.656 48.7742 101.656C48.771 101.656 48.7678 101.656 48.7647 101.656C48.7615 101.656 48.7583 101.656 48.7552 101.656C48.752 101.656 48.7488 101.656 48.7457 101.656C48.7425 101.656 48.7393 101.656 48.7362 101.656C48.733 101.656 48.7299 101.656 48.7267 101.656C48.7235 101.656 48.7204 101.656 48.7172 101.656C48.714 101.656 48.7109 101.656 48.7077 101.656C48.7046 101.656 48.7014 101.656 48.6983 101.656C48.6951 101.656 48.692 101.656 48.6888 101.656C48.6856 101.656 48.6825 101.656 48.6793 101.656C48.6762 101.656 48.673 101.656 48.6699 101.656C48.6667 101.656 48.6636 101.656 48.6604 101.656C48.6573 101.656 48.6541 101.656 48.651 101.656C48.6479 101.656 48.6447 101.656 48.6416 101.656C48.6384 101.656 48.6353 101.656 48.6321 101.656C48.629 101.656 48.6259 101.656 48.6227 101.656C48.6196 101.656 48.6164 101.656 48.6133 101.656C48.6102 101.656 48.607 101.656 48.6039 101.656C48.6008 101.656 48.5976 101.656 48.5945 101.656C48.5913 101.656 48.5882 101.656 48.5851 101.656C48.582 101.656 48.5788 101.656 48.5757 101.656C48.5726 101.656 48.5694 101.656 48.5663 101.656C48.5632 101.656 48.56 101.656 48.5569 101.656C48.5538 101.656 48.5507 101.656 48.5475 101.656C48.5444 101.656 48.5413 101.656 48.5382 101.656C48.5351 101.656 48.5319 101.656 48.5288 101.656C48.5257 101.656 48.5226 101.656 48.5195 101.656C48.5163 101.656 48.5132 101.656 48.5101 101.656C48.507 101.656 48.5039 101.656 48.5008 101.656C48.4976 101.656 48.4945 101.656 48.4914 101.656C48.4883 101.656 48.4852 101.656 48.4821 101.656C48.479 101.656 48.4759 101.656 48.4727 101.656C48.4696 101.656 48.4665 101.656 48.4634 101.656C48.4603 101.656 48.4572 101.656 48.4541 101.656C48.451 101.656 48.4479 101.656 48.4448 101.656C48.4417 101.656 48.4386 101.656 48.4355 101.656C48.4324 101.656 48.4293 101.656 48.4262 101.656C48.4231 101.656 48.42 101.656 48.4169 101.656C48.4138 101.656 48.4107 101.656 48.4076 101.656C48.4045 101.656 48.4014 101.656 48.3983 101.656C48.3952 101.656 48.3921 101.656 48.389 101.656C48.386 101.656 48.3829 101.656 48.3798 101.656C48.3767 101.656 48.3736 101.656 48.3705 101.656C48.3674 101.656 48.3643 101.656 48.3613 101.656C48.3582 101.656 48.3551 101.656 48.352 101.656C48.3489 101.656 48.3458 101.656 48.3428 101.656C48.3397 101.656 48.3366 101.656 48.3335 101.656C48.3304 101.656 48.3274 101.656 48.3243 101.656C48.3212 101.656 48.3181 101.656 48.315 101.656C48.312 101.656 48.3089 101.656 48.3058 101.656C48.3028 101.656 48.2997 101.656 48.2966 101.656C48.2935 101.656 48.2905 101.656 48.2874 101.656C48.2843 101.656 48.2813 101.656 48.2782 101.656C48.2751 101.656 48.2721 101.656 48.269 101.656C48.2659 101.656 48.2629 101.656 48.2598 101.656C48.2567 101.656 48.2537 101.656 48.2506 101.656C48.2475 101.656 48.2445 101.656 48.2414 101.656C48.2384 101.656 48.2353 101.656 48.2322 101.656C48.2292 101.656 48.2261 101.656 48.2231 101.656C48.22 101.656 48.217 101.656 48.2139 101.656C48.2109 101.656 48.2078 101.656 48.2048 101.656C48.2017 101.656 48.1986 101.656 48.1956 101.656C48.1925 101.656 48.1895 101.656 48.1865 101.656C48.1834 101.656 48.1804 101.656 48.1773 101.656C48.1743 101.656 48.1712 101.656 48.1682 101.656C48.1651 101.656 48.1621 101.656 48.159 101.656C48.156 101.656 48.153 101.656 48.1499 101.656C48.1469 101.656 48.1438 101.656 48.1408 101.656C48.1378 101.656 48.1347 101.656 48.1317 101.656C48.1287 101.656 48.1256 101.656 48.1226 101.656C48.1195 101.656 48.1165 101.656 48.1135 101.656C48.1105 101.656 48.1074 101.656 48.1044 101.656C48.1014 101.656 48.0983 101.656 48.0953 101.656C48.0923 101.656 48.0892 101.656 48.0862 101.656C48.0832 101.656 48.0802 101.656 48.0771 101.656C48.0741 101.656 48.0711 101.656 48.0681 101.656C48.065 101.656 48.062 101.656 48.059 101.656C48.056 101.656 48.053 101.656 48.0499 101.656C48.0469 101.656 48.0439 101.656 48.0409 101.656C48.0379 101.656 48.0349 101.656 48.0318 101.656C48.0288 101.656 48.0258 101.656 48.0228 101.656C48.0198 101.656 48.0168 101.656 48.0138 101.656C48.0108 101.656 48.0077 101.656 48.0047 101.656C48.0017 101.656 47.9987 101.656 47.9957 101.656C47.9927 101.656 47.9897 101.656 47.9867 101.656C47.9837 101.656 47.9807 101.656 47.9777 101.656C47.9747 101.656 47.9717 101.656 47.9687 101.656C47.9657 101.656 47.9627 101.656 47.9597 101.656C47.9567 101.656 47.9537 101.656 47.9507 101.656C47.9477 101.656 47.9447 101.656 47.9417 101.656C47.9387 101.656 47.9357 101.656 47.9327 101.656C47.9297 101.656 47.9267 101.656 47.9237 101.656C47.9207 101.656 47.9177 101.656 47.9148 101.656C47.9118 101.656 47.9088 101.656 47.9058 101.656C47.9028 101.656 47.8998 101.656 47.8968 101.656C47.8938 101.656 47.8909 101.656 47.8879 101.656C47.8849 101.656 47.8819 101.656 47.8789 101.656C47.8759 101.656 47.873 101.656 47.87 101.656C47.867 101.656 47.864 101.656 47.861 101.656C47.8581 101.656 47.8551 101.656 47.8521 101.656C47.8491 101.656 47.8462 101.656 47.8432 101.656C47.8402 101.656 47.8372 101.656 47.8343 101.656C47.8313 101.656 47.8283 101.656 47.8254 101.656C47.8224 101.656 47.8194 101.656 47.8165 101.656C47.8135 101.656 47.8105 101.656 47.8075 101.656C47.8046 101.656 47.8016 101.656 47.7987 101.656C47.7957 101.656 47.7927 101.656 47.7898 101.656C47.7868 101.656 47.7838 101.656 47.7809 101.656C47.7779 101.656 47.775 101.656 47.772 101.656C47.769 101.656 47.7661 101.656 47.7631 101.656C47.7602 101.656 47.7572 101.656 47.7543 101.656C47.7513 101.656 47.7484 101.656 47.7454 101.656C47.7425 101.656 47.7395 101.656 47.7365 101.656C47.7336 101.656 47.7306 101.656 47.7277 101.656C47.7248 101.656 47.7218 101.656 47.7189 101.656C47.7159 101.656 47.713 101.656 47.71 101.656C47.7071 101.656 47.7041 101.656 47.7012 101.656C47.6982 101.656 47.6953 101.656 47.6924 101.656C47.6894 101.656 47.6865 101.656 47.6835 101.656C47.6806 101.656 47.6777 101.656 47.6747 101.656C47.6718 101.656 47.6689 101.656 47.6659 101.656C47.663 101.656 47.6601 101.656 47.6571 101.656C47.6542 101.656 47.6513 101.656 47.6483 101.656C47.6454 101.656 47.6425 101.656 47.6395 101.656C47.6366 101.656 47.6337 101.656 47.6308 101.656C47.6278 101.656 47.6249 101.656 47.622 101.656C47.619 101.656 47.6161 101.656 47.6132 101.656C47.6103 101.656 47.6074 101.656 47.6044 101.656C47.6015 101.656 47.5986 101.656 47.5957 101.656C47.5928 101.656 47.5898 101.656 47.5869 101.656C47.584 101.656 47.5811 101.656 47.5782 101.656C47.5753 101.656 47.5723 101.656 47.5694 101.656C47.5665 101.656 47.5636 101.656 47.5607 101.656C47.5578 101.656 47.5549 101.656 47.552 101.656C47.549 101.656 47.5461 101.656 47.5432 101.656C47.5403 101.656 47.5374 101.656 47.5345 101.656C47.5316 101.656 47.5287 101.656 47.5258 101.656C47.5229 101.656 47.52 101.656 47.5171 101.656C47.5142 101.656 47.5113 101.656 47.5084 101.656C47.5055 101.656 47.5026 101.656 47.4997 101.656C47.4968 101.656 47.4939 101.656 47.491 101.656C47.4881 101.656 47.4852 101.656 47.4823 101.656C47.4794 101.656 47.4765 101.656 47.4736 101.656C47.4707 101.656 47.4679 101.656 47.465 101.656C47.4621 101.656 47.4592 101.656 47.4563 101.656C47.4534 101.656 47.4505 101.656 47.4476 101.656C47.4448 101.656 47.4419 101.656 47.439 101.656C47.4361 101.656 47.4332 101.656 47.4303 101.656C47.4275 101.656 47.4246 101.656 47.4217 101.656C47.4188 101.656 47.4159 101.656 47.4131 101.656C47.4102 101.656 47.4073 101.656 47.4044 101.656C47.4015 101.656 47.3987 101.656 47.3958 101.656C47.3929 101.656 47.39 101.656 47.3872 101.656C47.3843 101.656 47.3814 101.656 47.3786 101.656C47.3757 101.656 47.3728 101.656 47.37 101.656C47.3671 101.656 47.3642 101.656 47.3613 101.656C47.3585 101.656 47.3556 101.656 47.3528 101.656C47.3499 101.656 47.347 101.656 47.3442 101.656C47.3413 101.656 47.3384 101.656 47.3356 101.656C47.3327 101.656 47.3299 101.656 47.327 101.656C47.3241 101.656 47.3213 101.656 47.3184 101.656C47.3156 101.656 47.3127 101.656 47.3099 101.656C47.307 101.656 47.3041 101.656 47.3013 101.656C47.2984 101.656 47.2956 101.656 47.2927 101.656C47.2899 101.656 47.287 101.656 47.2842 101.656C47.2813 101.656 47.2785 101.656 47.2756 101.656C47.2728 101.656 47.27 101.656 47.2671 101.656C47.2643 101.656 47.2614 101.656 47.2586 101.656C47.2557 101.656 47.2529 101.656 47.25 101.656C47.2472 101.656 47.2444 101.656 47.2415 101.656C47.2387 101.656 47.2359 101.656 47.233 101.656C47.2302 101.656 47.2273 101.656 47.2245 101.656C47.2217 101.656 47.2188 101.656 47.216 101.656C47.2132 101.656 47.2103 101.656 47.2075 101.656C47.2047 101.656 47.2018 101.656 47.199 101.656C47.1962 101.656 47.1934 101.656 47.1905 101.656C47.1877 101.656 47.1849 101.656 47.182 101.656C47.1792 101.656 47.1764 101.656 47.1736 101.656C47.1708 101.656 47.1679 101.656 47.1651 101.656C47.1623 101.656 47.1595 101.656 47.1566 101.656C47.1538 101.656 47.151 101.656 47.1482 101.656C47.1454 101.656 47.1426 101.656 47.1397 101.656C47.1369 101.656 47.1341 101.656 47.1313 101.656C47.1285 101.656 47.1257 101.656 47.1229 101.656C47.12 101.656 47.1172 101.656 47.1144 101.656C47.1116 101.656 47.1088 101.656 47.106 101.656C47.1032 101.656 47.1004 101.656 47.0976 101.656C47.0948 101.656 47.092 101.656 47.0892 101.656C47.0864 101.656 47.0836 101.656 47.0808 101.656C47.078 101.656 47.0751 101.656 47.0723 101.656C47.0695 101.656 47.0667 101.656 47.064 101.656C47.0612 101.656 47.0584 101.656 47.0556 101.656C47.0528 101.656 47.05 101.656 47.0472 101.656C47.0444 101.656 47.0416 101.656 47.0388 101.656C47.036 101.656 47.0332 101.656 47.0304 101.656C47.0276 101.656 47.0248 101.656 47.0221 101.656C47.0193 101.656 47.0165 101.656 47.0137 101.656C47.0109 101.656 47.0081 101.656 47.0053 101.656C47.0025 101.656 46.9998 101.656 46.997 101.656C46.9942 101.656 46.9914 101.656 46.9886 101.656C46.9859 101.656 46.9831 101.656 46.9803 101.656C46.9775 101.656 46.9747 101.656 46.972 101.656C46.9692 101.656 46.9664 101.656 46.9636 101.656C46.9609 101.656 46.9581 101.656 46.9553 101.656C46.9525 101.656 46.9498 101.656 46.947 101.656C46.9442 101.656 46.9415 101.656 46.9387 101.656C46.9359 101.656 46.9332 101.656 46.9304 101.656C46.9276 101.656 46.9249 101.656 46.9221 101.656C46.9193 101.656 46.9166 101.656 46.9138 101.656C46.911 101.656 46.9083 101.656 46.9055 101.656C46.9028 101.656 46.9 101.656 46.8972 101.656C46.8945 101.656 46.8917 101.656 46.889 101.656C46.8862 101.656 46.8834 101.656 46.8807 101.656C46.8779 101.656 46.8752 101.656 46.8724 101.656C46.8697 101.656 46.8669 101.656 46.8642 101.656C46.8614 101.656 46.8587 101.656 46.8559 101.656C46.8532 101.656 46.8504 101.656 46.8477 101.656C46.8449 101.656 46.8422 101.656 46.8394 101.656C46.8367 101.656 46.8339 101.656 46.8312 101.656C46.8285 101.656 46.8257 101.656 46.823 101.656C46.8202 101.656 46.8175 101.656 46.8148 101.656C46.812 101.656 46.8093 101.656 46.8065 101.656C46.8038 101.656 46.8011 101.656 46.7983 101.656C46.7956 101.656 46.7929 101.656 46.7901 101.656C46.7874 101.656 46.7847 101.656 46.7819 101.656C46.7792 101.656 46.7765 101.656 46.7737 101.656C46.771 101.656 46.7683 101.656 46.7655 101.656C46.7628 101.656 46.7601 101.656 46.7574 101.656C46.7546 101.656 46.7519 101.656 46.7492 101.656C46.7465 101.656 46.7437 101.656 46.741 101.656C46.7383 101.656 46.7356 101.656 46.7329 101.656C46.7301 101.656 46.7274 101.656 46.7247 101.656C46.722 101.656 46.7193 101.656 46.7165 101.656C46.7138 101.656 46.7111 101.656 46.7084 101.656C46.7057 101.656 46.703 101.656 46.7003 101.656C46.6976 101.656 46.6948 101.656 46.6921 101.656C46.6894 101.656 46.6867 101.656 46.684 101.656C46.6813 101.656 46.6786 101.656 46.6759 101.656C46.6732 101.656 46.6705 101.656 46.6678 101.656C46.6651 101.656 46.6624 101.656 46.6597 101.656C46.657 101.656 46.6542 101.656 46.6515 101.656C46.6488 101.656 46.6461 101.656 46.6435 101.656C46.6408 101.656 46.6381 101.656 46.6354 101.656C46.6327 101.656 46.63 101.656 46.6273 101.656C46.6246 101.656 46.6219 101.656 46.6192 101.656C46.6165 101.656 46.6138 101.656 46.6111 101.656C46.6084 101.656 46.6057 101.656 46.603 101.656C46.6004 101.656 46.5977 101.656 46.595 101.656C46.5923 101.656 46.5896 101.656 46.5869 101.656C46.5842 101.656 46.5816 101.656 46.5789 101.656C46.5762 101.656 46.5735 101.656 46.5708 101.656C46.5681 101.656 46.5655 101.656 46.5628 101.656C46.5601 101.656 46.5574 101.656 46.5548 101.656C46.5521 101.656 46.5494 101.656 46.5467 101.656C46.544 101.656 46.5414 101.656 46.5387 101.656C46.536 101.656 46.5334 101.656 46.5307 101.656C46.528 101.656 46.5253 101.656 46.5227 101.656C46.52 101.656 46.5173 101.656 46.5147 101.656C46.512 101.656 46.5093 101.656 46.5067 101.656C46.504 101.656 46.5013 101.656 46.4987 101.656C46.496 101.656 46.4934 101.656 46.4907 101.656C46.488 101.656 46.4854 101.656 46.4827 101.656C46.48 101.656 46.4774 101.656 46.4747 101.656C46.4721 101.656 46.4694 101.656 46.4668 101.656C46.4641 101.656 46.4615 101.656 46.4588 101.656C46.4561 101.656 46.4535 101.656 46.4508 101.656C46.4482 101.656 46.4455 101.656 46.4429 101.656C46.4402 101.656 46.4376 101.656 46.4349 101.656C46.4323 101.656 46.4296 101.656 46.427 101.656C46.4244 101.656 46.4217 101.656 46.4191 101.656C46.4164 101.656 46.4138 101.656 46.4111 101.656C46.4085 101.656 46.4059 101.656 46.4032 101.656C46.4006 101.656 46.3979 101.656 46.3953 101.656C46.3927 101.656 46.39 101.656 46.3874 101.656C46.3848 101.656 46.3821 101.656 46.3795 101.656C46.3768 101.656 46.3742 101.656 46.3716 101.656C46.369 101.656 46.3663 101.656 46.3637 101.656C46.3611 101.656 46.3584 101.656 46.3558 101.656C46.3532 101.656 46.3505 101.656 46.3479 101.656C46.3453 101.656 46.3427 101.656 46.34 101.656C46.3374 101.656 46.3348 101.656 46.3322 101.656C46.3296 101.656 46.3269 101.656 46.3243 101.656C46.3217 101.656 46.3191 101.656 46.3165 101.656C46.3138 101.656 46.3112 101.656 46.3086 101.656C46.306 101.656 46.3034 101.656 46.3008 101.656C46.2981 101.656 46.2955 101.656 46.2929 101.656C46.2903 101.656 46.2877 101.656 46.2851 101.656C46.2825 101.656 46.2799 101.656 46.2772 101.656C46.2746 101.656 46.272 101.656 46.2694 101.656C46.2668 101.656 46.2642 101.656 46.2616 101.656C46.259 101.656 46.2564 101.656 46.2538 101.656C46.2512 101.656 46.2486 101.656 46.246 101.656C46.2434 101.656 46.2408 101.656 46.2382 101.656C46.2356 101.656 46.233 101.656 46.2304 101.656C46.2278 101.656 46.2252 101.656 46.2226 101.656C46.22 101.656 46.2174 101.656 46.2148 101.656C46.2122 101.656 46.2096 101.656 46.207 101.656C46.2045 101.656 46.2019 101.656 46.1993 101.656C46.1967 101.656 46.1941 101.656 46.1915 101.656C46.1889 101.656 46.1863 101.656 46.1838 101.656C46.1812 101.656 46.1786 101.656 46.176 101.656C46.1734 101.656 46.1708 101.656 46.1683 101.656C46.1657 101.656 46.1631 101.656 46.1605 101.656C46.1579 101.656 46.1554 101.656 46.1528 101.656C46.1502 101.656 46.1476 101.656 46.145 101.656C46.1425 101.656 46.1399 101.656 46.1373 101.656C46.1348 101.656 46.1322 101.656 46.1296 101.656C46.127 101.656 46.1245 101.656 46.1219 101.656C46.1193 101.656 46.1168 101.656 46.1142 101.656C46.1116 101.656 46.1091 101.656 46.1065 101.656C46.1039 101.656 46.1014 101.656 46.0988 101.656C46.0962 101.656 46.0937 101.656 46.0911 101.656C46.0885 101.656 46.086 101.656 46.0834 101.656C46.0809 101.656 46.0783 101.656 46.0757 101.656C46.0732 101.656 46.0706 101.656 46.0681 101.656C46.0655 101.656 46.063 101.656 46.0604 101.656C46.0579 101.656 46.0553 101.656 46.0528 101.656C46.0502 101.656 46.0476 101.656 46.0451 101.656C46.0425 101.656 46.04 101.656 46.0375 101.656C46.0349 101.656 46.0324 101.656 46.0298 101.656C46.0273 101.656 46.0247 101.656 46.0222 101.656C46.0196 101.656 46.0171 101.656 46.0145 101.656C46.012 101.656 46.0095 101.656 46.0069 101.656C46.0044 101.656 46.0018 101.656 45.9993 101.656C45.9968 101.656 45.9942 101.656 45.9917 101.656C45.9892 101.656 45.9866 101.656 45.9841 101.656C45.9815 101.656 45.979 101.656 45.9765 101.656C45.974 101.656 45.9714 101.656 45.9689 101.656C45.9664 101.656 45.9638 101.656 45.9613 101.656C45.9588 101.656 45.9562 101.656 45.9537 101.656C45.9512 101.656 45.9487 101.656 45.9461 101.656C45.9436 101.656 45.9411 101.656 45.9386 101.656C45.936 101.656 45.9335 101.656 45.931 101.656C45.9285 101.656 45.926 101.656 45.9234 101.656C45.9209 101.656 45.9184 101.656 45.9159 101.656C45.9134 101.656 45.9109 101.656 45.9083 101.656C45.9058 101.656 45.9033 101.656 45.9008 101.656C45.8983 101.656 45.8958 101.656 45.8933 101.656C45.8908 101.656 45.8882 101.656 45.8857 101.656C45.8832 101.656 45.8807 101.656 45.8782 101.656C45.8757 101.656 45.8732 101.656 45.8707 101.656C45.8682 101.656 45.8657 101.656 45.8632 101.656C45.8607 101.656 45.8582 101.656 45.8557 101.656C45.8532 101.656 45.8507 101.656 45.8482 101.656C45.8457 101.656 45.8432 101.656 45.8407 101.656C45.8382 101.656 45.8357 101.656 45.8332 101.656C45.8307 101.656 45.8282 101.656 45.8257 101.656C45.8232 101.656 45.8207 101.656 45.8182 101.656C45.8157 101.656 45.8132 101.656 45.8108 101.656C45.8083 101.656 45.8058 101.656 45.8033 101.656C45.8008 101.656 45.7983 101.656 45.7958 101.656C45.7933 101.656 45.7909 101.656 45.7884 101.656C45.7859 101.656 45.7834 101.656 45.7809 101.656C45.7784 101.656 45.776 101.656 45.7735 101.656C45.771 101.656 45.7685 101.656 45.766 101.656C45.7636 101.656 45.7611 101.656 45.7586 101.656C45.7561 101.656 45.7537 101.656 45.7512 101.656C45.7487 101.656 45.7462 101.656 45.7438 101.656C45.7413 101.656 45.7388 101.656 45.7364 101.656C45.7339 101.656 45.7314 101.656 45.729 101.656C45.7265 101.656 45.724 101.656 45.7215 101.656C45.7191 101.656 45.7166 101.656 45.7142 101.656C45.7117 101.656 45.7092 101.656 45.7068 101.656C45.7043 101.656 45.7018 101.656 45.6994 101.656C45.6969 101.656 45.6945 101.656 45.692 101.656C45.6895 101.656 45.6871 101.656 45.6846 101.656C45.6822 101.656 45.6797 101.656 45.6773 101.656C45.6748 101.656 45.6724 101.656 45.6699 101.656C45.6675 101.656 45.665 101.656 45.6625 101.656C45.6601 101.656 45.6576 101.656 45.6552 101.656C45.6528 101.656 45.6503 101.656 45.6479 101.656C45.6454 101.656 45.643 101.656 45.6405 101.656C45.6381 101.656 45.6356 101.656 45.6332 101.656C45.6307 101.656 45.6283 101.656 45.6259 101.656C45.6234 101.656 45.621 101.656 45.6185 101.656C45.6161 101.656 45.6137 101.656 45.6112 101.656C45.6088 101.656 45.6064 101.656 45.6039 101.656C45.6015 101.656 45.5991 101.656 45.5966 101.656C45.5942 101.656 45.5918 101.656 45.5893 101.656C45.5869 101.656 45.5845 101.656 45.582 101.656C45.5796 101.656 45.5772 101.656 45.5748 101.656C45.5723 101.656 45.5699 101.656 45.5675 101.656C45.565 101.656 45.5626 101.656 45.5602 101.656C45.5578 101.656 45.5554 101.656 45.5529 101.656C45.5505 101.656 45.5481 101.656 45.5457 101.656C45.5433 101.656 45.5408 101.656 45.5384 101.656C45.536 101.656 45.5336 101.656 45.5312 101.656C45.5288 101.656 45.5263 101.656 45.5239 101.656C45.5215 101.656 45.5191 101.656 45.5167 101.656C45.5143 101.656 45.5119 101.656 45.5095 101.656C45.507 101.656 45.5046 101.656 45.5022 101.656C45.4998 101.656 45.4974 101.656 45.495 101.656C45.4926 101.656 45.4902 101.656 45.4878 101.656C45.4854 101.656 45.483 101.656 45.4806 101.656C45.4782 101.656 45.4758 101.656 45.4734 101.656C45.471 101.656 45.4686 101.656 45.4662 101.656C45.4638 101.656 45.4614 101.656 45.459 101.656C45.4566 101.656 45.4542 101.656 45.4518 101.656C45.4494 101.656 45.447 101.656 45.4446 101.656C45.4422 101.656 45.4399 101.656 45.4375 101.656C45.4351 101.656 45.4327 101.656 45.4303 101.656C45.4279 101.656 45.4255 101.656 45.4231 101.656C45.4208 101.656 45.4184 101.656 45.416 101.656C45.4136 101.656 45.4112 101.656 45.4088 101.656C45.4065 101.656 45.4041 101.656 45.4017 101.656C45.3993 101.656 45.3969 101.656 45.3946 101.656C45.3922 101.656 45.3898 101.656 45.3874 101.656C45.385 101.656 45.3827 101.656 45.3803 101.656C45.3779 101.656 45.3755 101.656 45.3732 101.656C45.3708 101.656 45.3684 101.656 45.3661 101.656C45.3637 101.656 45.3613 101.656 45.359 101.656C45.3566 101.656 45.3542 101.656 45.3518 101.656C45.3495 101.656 45.3471 101.656 45.3448 101.656C45.3424 101.656 45.34 101.656 45.3377 101.656C45.3353 101.656 45.3329 101.656 45.3306 101.656C45.3282 101.656 45.3259 101.656 45.3235 101.656C45.3211 101.656 45.3188 101.656 45.3164 101.656C45.3141 101.656 45.3117 101.656 45.3094 101.656C45.307 101.656 45.3046 101.656 45.3023 101.656C45.2999 101.656 45.2976 101.656 45.2952 101.656C45.2929 101.656 45.2905 101.656 45.2882 101.656C45.2858 101.656 45.2835 101.656 45.2811 101.656C45.2788 101.656 45.2765 101.656 45.2741 101.656C45.2718 101.656 45.2694 101.656 45.2671 101.656C45.2647 101.656 45.2624 101.656 45.26 101.656C45.2577 101.656 45.2554 101.656 45.253 101.656C45.2507 101.656 45.2484 101.656 45.246 101.656C45.2437 101.656 45.2413 101.656 45.239 101.656C45.2367 101.656 45.2343 101.656 45.232 101.656V113.656C45.2343 113.656 45.2367 113.656 45.239 113.656C45.2413 113.656 45.2437 113.656 45.246 113.656C45.2484 113.656 45.2507 113.656 45.253 113.656C45.2554 113.656 45.2577 113.656 45.26 113.656C45.2624 113.656 45.2647 113.656 45.2671 113.656C45.2694 113.656 45.2718 113.656 45.2741 113.656C45.2765 113.656 45.2788 113.656 45.2811 113.656C45.2835 113.656 45.2858 113.656 45.2882 113.656C45.2905 113.656 45.2929 113.656 45.2952 113.656C45.2976 113.656 45.2999 113.656 45.3023 113.656C45.3046 113.656 45.307 113.656 45.3094 113.656C45.3117 113.656 45.3141 113.656 45.3164 113.656C45.3188 113.656 45.3211 113.656 45.3235 113.656C45.3259 113.656 45.3282 113.656 45.3306 113.656C45.3329 113.656 45.3353 113.656 45.3377 113.656C45.34 113.656 45.3424 113.656 45.3448 113.656C45.3471 113.656 45.3495 113.656 45.3518 113.656C45.3542 113.656 45.3566 113.656 45.359 113.656C45.3613 113.656 45.3637 113.656 45.3661 113.656C45.3684 113.656 45.3708 113.656 45.3732 113.656C45.3755 113.656 45.3779 113.656 45.3803 113.656C45.3827 113.656 45.385 113.656 45.3874 113.656C45.3898 113.656 45.3922 113.656 45.3946 113.656C45.3969 113.656 45.3993 113.656 45.4017 113.656C45.4041 113.656 45.4065 113.656 45.4088 113.656C45.4112 113.656 45.4136 113.656 45.416 113.656C45.4184 113.656 45.4208 113.656 45.4231 113.656C45.4255 113.656 45.4279 113.656 45.4303 113.656C45.4327 113.656 45.4351 113.656 45.4375 113.656C45.4399 113.656 45.4422 113.656 45.4446 113.656C45.447 113.656 45.4494 113.656 45.4518 113.656C45.4542 113.656 45.4566 113.656 45.459 113.656C45.4614 113.656 45.4638 113.656 45.4662 113.656C45.4686 113.656 45.471 113.656 45.4734 113.656C45.4758 113.656 45.4782 113.656 45.4806 113.656C45.483 113.656 45.4854 113.656 45.4878 113.656C45.4902 113.656 45.4926 113.656 45.495 113.656C45.4974 113.656 45.4998 113.656 45.5022 113.656C45.5046 113.656 45.507 113.656 45.5095 113.656C45.5119 113.656 45.5143 113.656 45.5167 113.656C45.5191 113.656 45.5215 113.656 45.5239 113.656C45.5263 113.656 45.5288 113.656 45.5312 113.656C45.5336 113.656 45.536 113.656 45.5384 113.656C45.5408 113.656 45.5433 113.656 45.5457 113.656C45.5481 113.656 45.5505 113.656 45.5529 113.656C45.5554 113.656 45.5578 113.656 45.5602 113.656C45.5626 113.656 45.565 113.656 45.5675 113.656C45.5699 113.656 45.5723 113.656 45.5748 113.656C45.5772 113.656 45.5796 113.656 45.582 113.656C45.5845 113.656 45.5869 113.656 45.5893 113.656C45.5918 113.656 45.5942 113.656 45.5966 113.656C45.5991 113.656 45.6015 113.656 45.6039 113.656C45.6064 113.656 45.6088 113.656 45.6112 113.656C45.6137 113.656 45.6161 113.656 45.6185 113.656C45.621 113.656 45.6234 113.656 45.6259 113.656C45.6283 113.656 45.6307 113.656 45.6332 113.656C45.6356 113.656 45.6381 113.656 45.6405 113.656C45.643 113.656 45.6454 113.656 45.6479 113.656C45.6503 113.656 45.6528 113.656 45.6552 113.656C45.6576 113.656 45.6601 113.656 45.6625 113.656C45.665 113.656 45.6675 113.656 45.6699 113.656C45.6724 113.656 45.6748 113.656 45.6773 113.656C45.6797 113.656 45.6822 113.656 45.6846 113.656C45.6871 113.656 45.6895 113.656 45.692 113.656C45.6945 113.656 45.6969 113.656 45.6994 113.656C45.7018 113.656 45.7043 113.656 45.7068 113.656C45.7092 113.656 45.7117 113.656 45.7142 113.656C45.7166 113.656 45.7191 113.656 45.7215 113.656C45.724 113.656 45.7265 113.656 45.729 113.656C45.7314 113.656 45.7339 113.656 45.7364 113.656C45.7388 113.656 45.7413 113.656 45.7438 113.656C45.7462 113.656 45.7487 113.656 45.7512 113.656C45.7537 113.656 45.7561 113.656 45.7586 113.656C45.7611 113.656 45.7636 113.656 45.766 113.656C45.7685 113.656 45.771 113.656 45.7735 113.656C45.776 113.656 45.7784 113.656 45.7809 113.656C45.7834 113.656 45.7859 113.656 45.7884 113.656C45.7909 113.656 45.7933 113.656 45.7958 113.656C45.7983 113.656 45.8008 113.656 45.8033 113.656C45.8058 113.656 45.8083 113.656 45.8108 113.656C45.8132 113.656 45.8157 113.656 45.8182 113.656C45.8207 113.656 45.8232 113.656 45.8257 113.656C45.8282 113.656 45.8307 113.656 45.8332 113.656C45.8357 113.656 45.8382 113.656 45.8407 113.656C45.8432 113.656 45.8457 113.656 45.8482 113.656C45.8507 113.656 45.8532 113.656 45.8557 113.656C45.8582 113.656 45.8607 113.656 45.8632 113.656C45.8657 113.656 45.8682 113.656 45.8707 113.656C45.8732 113.656 45.8757 113.656 45.8782 113.656C45.8807 113.656 45.8832 113.656 45.8857 113.656C45.8882 113.656 45.8908 113.656 45.8933 113.656C45.8958 113.656 45.8983 113.656 45.9008 113.656C45.9033 113.656 45.9058 113.656 45.9083 113.656C45.9109 113.656 45.9134 113.656 45.9159 113.656C45.9184 113.656 45.9209 113.656 45.9234 113.656C45.926 113.656 45.9285 113.656 45.931 113.656C45.9335 113.656 45.936 113.656 45.9386 113.656C45.9411 113.656 45.9436 113.656 45.9461 113.656C45.9487 113.656 45.9512 113.656 45.9537 113.656C45.9562 113.656 45.9588 113.656 45.9613 113.656C45.9638 113.656 45.9664 113.656 45.9689 113.656C45.9714 113.656 45.974 113.656 45.9765 113.656C45.979 113.656 45.9815 113.656 45.9841 113.656C45.9866 113.656 45.9892 113.656 45.9917 113.656C45.9942 113.656 45.9968 113.656 45.9993 113.656C46.0018 113.656 46.0044 113.656 46.0069 113.656C46.0095 113.656 46.012 113.656 46.0145 113.656C46.0171 113.656 46.0196 113.656 46.0222 113.656C46.0247 113.656 46.0273 113.656 46.0298 113.656C46.0324 113.656 46.0349 113.656 46.0375 113.656C46.04 113.656 46.0425 113.656 46.0451 113.656C46.0476 113.656 46.0502 113.656 46.0528 113.656C46.0553 113.656 46.0579 113.656 46.0604 113.656C46.063 113.656 46.0655 113.656 46.0681 113.656C46.0706 113.656 46.0732 113.656 46.0757 113.656C46.0783 113.656 46.0809 113.656 46.0834 113.656C46.086 113.656 46.0885 113.656 46.0911 113.656C46.0937 113.656 46.0962 113.656 46.0988 113.656C46.1014 113.656 46.1039 113.656 46.1065 113.656C46.1091 113.656 46.1116 113.656 46.1142 113.656C46.1168 113.656 46.1193 113.656 46.1219 113.656C46.1245 113.656 46.127 113.656 46.1296 113.656C46.1322 113.656 46.1348 113.656 46.1373 113.656C46.1399 113.656 46.1425 113.656 46.145 113.656C46.1476 113.656 46.1502 113.656 46.1528 113.656C46.1554 113.656 46.1579 113.656 46.1605 113.656C46.1631 113.656 46.1657 113.656 46.1683 113.656C46.1708 113.656 46.1734 113.656 46.176 113.656C46.1786 113.656 46.1812 113.656 46.1838 113.656C46.1863 113.656 46.1889 113.656 46.1915 113.656C46.1941 113.656 46.1967 113.656 46.1993 113.656C46.2019 113.656 46.2045 113.656 46.207 113.656C46.2096 113.656 46.2122 113.656 46.2148 113.656C46.2174 113.656 46.22 113.656 46.2226 113.656C46.2252 113.656 46.2278 113.656 46.2304 113.656C46.233 113.656 46.2356 113.656 46.2382 113.656C46.2408 113.656 46.2434 113.656 46.246 113.656C46.2486 113.656 46.2512 113.656 46.2538 113.656C46.2564 113.656 46.259 113.656 46.2616 113.656C46.2642 113.656 46.2668 113.656 46.2694 113.656C46.272 113.656 46.2746 113.656 46.2772 113.656C46.2799 113.656 46.2825 113.656 46.2851 113.656C46.2877 113.656 46.2903 113.656 46.2929 113.656C46.2955 113.656 46.2981 113.656 46.3008 113.656C46.3034 113.656 46.306 113.656 46.3086 113.656C46.3112 113.656 46.3138 113.656 46.3165 113.656C46.3191 113.656 46.3217 113.656 46.3243 113.656C46.3269 113.656 46.3296 113.656 46.3322 113.656C46.3348 113.656 46.3374 113.656 46.34 113.656C46.3427 113.656 46.3453 113.656 46.3479 113.656C46.3505 113.656 46.3532 113.656 46.3558 113.656C46.3584 113.656 46.3611 113.656 46.3637 113.656C46.3663 113.656 46.369 113.656 46.3716 113.656C46.3742 113.656 46.3768 113.656 46.3795 113.656C46.3821 113.656 46.3848 113.656 46.3874 113.656C46.39 113.656 46.3927 113.656 46.3953 113.656C46.3979 113.656 46.4006 113.656 46.4032 113.656C46.4059 113.656 46.4085 113.656 46.4111 113.656C46.4138 113.656 46.4164 113.656 46.4191 113.656C46.4217 113.656 46.4244 113.656 46.427 113.656C46.4296 113.656 46.4323 113.656 46.4349 113.656C46.4376 113.656 46.4402 113.656 46.4429 113.656C46.4455 113.656 46.4482 113.656 46.4508 113.656C46.4535 113.656 46.4561 113.656 46.4588 113.656C46.4615 113.656 46.4641 113.656 46.4668 113.656C46.4694 113.656 46.4721 113.656 46.4747 113.656C46.4774 113.656 46.48 113.656 46.4827 113.656C46.4854 113.656 46.488 113.656 46.4907 113.656C46.4934 113.656 46.496 113.656 46.4987 113.656C46.5013 113.656 46.504 113.656 46.5067 113.656C46.5093 113.656 46.512 113.656 46.5147 113.656C46.5173 113.656 46.52 113.656 46.5227 113.656C46.5253 113.656 46.528 113.656 46.5307 113.656C46.5334 113.656 46.536 113.656 46.5387 113.656C46.5414 113.656 46.544 113.656 46.5467 113.656C46.5494 113.656 46.5521 113.656 46.5548 113.656C46.5574 113.656 46.5601 113.656 46.5628 113.656C46.5655 113.656 46.5681 113.656 46.5708 113.656C46.5735 113.656 46.5762 113.656 46.5789 113.656C46.5816 113.656 46.5842 113.656 46.5869 113.656C46.5896 113.656 46.5923 113.656 46.595 113.656C46.5977 113.656 46.6004 113.656 46.603 113.656C46.6057 113.656 46.6084 113.656 46.6111 113.656C46.6138 113.656 46.6165 113.656 46.6192 113.656C46.6219 113.656 46.6246 113.656 46.6273 113.656C46.63 113.656 46.6327 113.656 46.6354 113.656C46.6381 113.656 46.6408 113.656 46.6435 113.656C46.6461 113.656 46.6488 113.656 46.6515 113.656C46.6542 113.656 46.657 113.656 46.6597 113.656C46.6624 113.656 46.6651 113.656 46.6678 113.656C46.6705 113.656 46.6732 113.656 46.6759 113.656C46.6786 113.656 46.6813 113.656 46.684 113.656C46.6867 113.656 46.6894 113.656 46.6921 113.656C46.6948 113.656 46.6976 113.656 46.7003 113.656C46.703 113.656 46.7057 113.656 46.7084 113.656C46.7111 113.656 46.7138 113.656 46.7165 113.656C46.7193 113.656 46.722 113.656 46.7247 113.656C46.7274 113.656 46.7301 113.656 46.7329 113.656C46.7356 113.656 46.7383 113.656 46.741 113.656C46.7437 113.656 46.7465 113.656 46.7492 113.656C46.7519 113.656 46.7546 113.656 46.7574 113.656C46.7601 113.656 46.7628 113.656 46.7655 113.656C46.7683 113.656 46.771 113.656 46.7737 113.656C46.7765 113.656 46.7792 113.656 46.7819 113.656C46.7847 113.656 46.7874 113.656 46.7901 113.656C46.7929 113.656 46.7956 113.656 46.7983 113.656C46.8011 113.656 46.8038 113.656 46.8065 113.656C46.8093 113.656 46.812 113.656 46.8148 113.656C46.8175 113.656 46.8202 113.656 46.823 113.656C46.8257 113.656 46.8285 113.656 46.8312 113.656C46.8339 113.656 46.8367 113.656 46.8394 113.656C46.8422 113.656 46.8449 113.656 46.8477 113.656C46.8504 113.656 46.8532 113.656 46.8559 113.656C46.8587 113.656 46.8614 113.656 46.8642 113.656C46.8669 113.656 46.8697 113.656 46.8724 113.656C46.8752 113.656 46.8779 113.656 46.8807 113.656C46.8834 113.656 46.8862 113.656 46.889 113.656C46.8917 113.656 46.8945 113.656 46.8972 113.656C46.9 113.656 46.9028 113.656 46.9055 113.656C46.9083 113.656 46.911 113.656 46.9138 113.656C46.9166 113.656 46.9193 113.656 46.9221 113.656C46.9249 113.656 46.9276 113.656 46.9304 113.656C46.9332 113.656 46.9359 113.656 46.9387 113.656C46.9415 113.656 46.9442 113.656 46.947 113.656C46.9498 113.656 46.9525 113.656 46.9553 113.656C46.9581 113.656 46.9609 113.656 46.9636 113.656C46.9664 113.656 46.9692 113.656 46.972 113.656C46.9747 113.656 46.9775 113.656 46.9803 113.656C46.9831 113.656 46.9859 113.656 46.9886 113.656C46.9914 113.656 46.9942 113.656 46.997 113.656C46.9998 113.656 47.0025 113.656 47.0053 113.656C47.0081 113.656 47.0109 113.656 47.0137 113.656C47.0165 113.656 47.0193 113.656 47.0221 113.656C47.0248 113.656 47.0276 113.656 47.0304 113.656C47.0332 113.656 47.036 113.656 47.0388 113.656C47.0416 113.656 47.0444 113.656 47.0472 113.656C47.05 113.656 47.0528 113.656 47.0556 113.656C47.0584 113.656 47.0612 113.656 47.064 113.656C47.0667 113.656 47.0695 113.656 47.0723 113.656C47.0751 113.656 47.078 113.656 47.0808 113.656C47.0836 113.656 47.0864 113.656 47.0892 113.656C47.092 113.656 47.0948 113.656 47.0976 113.656C47.1004 113.656 47.1032 113.656 47.106 113.656C47.1088 113.656 47.1116 113.656 47.1144 113.656C47.1172 113.656 47.12 113.656 47.1229 113.656C47.1257 113.656 47.1285 113.656 47.1313 113.656C47.1341 113.656 47.1369 113.656 47.1397 113.656C47.1426 113.656 47.1454 113.656 47.1482 113.656C47.151 113.656 47.1538 113.656 47.1566 113.656C47.1595 113.656 47.1623 113.656 47.1651 113.656C47.1679 113.656 47.1708 113.656 47.1736 113.656C47.1764 113.656 47.1792 113.656 47.182 113.656C47.1849 113.656 47.1877 113.656 47.1905 113.656C47.1934 113.656 47.1962 113.656 47.199 113.656C47.2018 113.656 47.2047 113.656 47.2075 113.656C47.2103 113.656 47.2132 113.656 47.216 113.656C47.2188 113.656 47.2217 113.656 47.2245 113.656C47.2273 113.656 47.2302 113.656 47.233 113.656C47.2359 113.656 47.2387 113.656 47.2415 113.656C47.2444 113.656 47.2472 113.656 47.25 113.656C47.2529 113.656 47.2557 113.656 47.2586 113.656C47.2614 113.656 47.2643 113.656 47.2671 113.656C47.27 113.656 47.2728 113.656 47.2756 113.656C47.2785 113.656 47.2813 113.656 47.2842 113.656C47.287 113.656 47.2899 113.656 47.2927 113.656C47.2956 113.656 47.2984 113.656 47.3013 113.656C47.3041 113.656 47.307 113.656 47.3099 113.656C47.3127 113.656 47.3156 113.656 47.3184 113.656C47.3213 113.656 47.3241 113.656 47.327 113.656C47.3299 113.656 47.3327 113.656 47.3356 113.656C47.3384 113.656 47.3413 113.656 47.3442 113.656C47.347 113.656 47.3499 113.656 47.3528 113.656C47.3556 113.656 47.3585 113.656 47.3613 113.656C47.3642 113.656 47.3671 113.656 47.37 113.656C47.3728 113.656 47.3757 113.656 47.3786 113.656C47.3814 113.656 47.3843 113.656 47.3872 113.656C47.39 113.656 47.3929 113.656 47.3958 113.656C47.3987 113.656 47.4015 113.656 47.4044 113.656C47.4073 113.656 47.4102 113.656 47.4131 113.656C47.4159 113.656 47.4188 113.656 47.4217 113.656C47.4246 113.656 47.4275 113.656 47.4303 113.656C47.4332 113.656 47.4361 113.656 47.439 113.656C47.4419 113.656 47.4448 113.656 47.4476 113.656C47.4505 113.656 47.4534 113.656 47.4563 113.656C47.4592 113.656 47.4621 113.656 47.465 113.656C47.4679 113.656 47.4707 113.656 47.4736 113.656C47.4765 113.656 47.4794 113.656 47.4823 113.656C47.4852 113.656 47.4881 113.656 47.491 113.656C47.4939 113.656 47.4968 113.656 47.4997 113.656C47.5026 113.656 47.5055 113.656 47.5084 113.656C47.5113 113.656 47.5142 113.656 47.5171 113.656C47.52 113.656 47.5229 113.656 47.5258 113.656C47.5287 113.656 47.5316 113.656 47.5345 113.656C47.5374 113.656 47.5403 113.656 47.5432 113.656C47.5461 113.656 47.549 113.656 47.552 113.656C47.5549 113.656 47.5578 113.656 47.5607 113.656C47.5636 113.656 47.5665 113.656 47.5694 113.656C47.5723 113.656 47.5753 113.656 47.5782 113.656C47.5811 113.656 47.584 113.656 47.5869 113.656C47.5898 113.656 47.5928 113.656 47.5957 113.656C47.5986 113.656 47.6015 113.656 47.6044 113.656C47.6074 113.656 47.6103 113.656 47.6132 113.656C47.6161 113.656 47.619 113.656 47.622 113.656C47.6249 113.656 47.6278 113.656 47.6308 113.656C47.6337 113.656 47.6366 113.656 47.6395 113.656C47.6425 113.656 47.6454 113.656 47.6483 113.656C47.6513 113.656 47.6542 113.656 47.6571 113.656C47.6601 113.656 47.663 113.656 47.6659 113.656C47.6689 113.656 47.6718 113.656 47.6747 113.656C47.6777 113.656 47.6806 113.656 47.6835 113.656C47.6865 113.656 47.6894 113.656 47.6924 113.656C47.6953 113.656 47.6982 113.656 47.7012 113.656C47.7041 113.656 47.7071 113.656 47.71 113.656C47.713 113.656 47.7159 113.656 47.7189 113.656C47.7218 113.656 47.7248 113.656 47.7277 113.656C47.7306 113.656 47.7336 113.656 47.7365 113.656C47.7395 113.656 47.7425 113.656 47.7454 113.656C47.7484 113.656 47.7513 113.656 47.7543 113.656C47.7572 113.656 47.7602 113.656 47.7631 113.656C47.7661 113.656 47.769 113.656 47.772 113.656C47.775 113.656 47.7779 113.656 47.7809 113.656C47.7838 113.656 47.7868 113.656 47.7898 113.656C47.7927 113.656 47.7957 113.656 47.7987 113.656C47.8016 113.656 47.8046 113.656 47.8075 113.656C47.8105 113.656 47.8135 113.656 47.8165 113.656C47.8194 113.656 47.8224 113.656 47.8254 113.656C47.8283 113.656 47.8313 113.656 47.8343 113.656C47.8372 113.656 47.8402 113.656 47.8432 113.656C47.8462 113.656 47.8491 113.656 47.8521 113.656C47.8551 113.656 47.8581 113.656 47.861 113.656C47.864 113.656 47.867 113.656 47.87 113.656C47.873 113.656 47.8759 113.656 47.8789 113.656C47.8819 113.656 47.8849 113.656 47.8879 113.656C47.8909 113.656 47.8938 113.656 47.8968 113.656C47.8998 113.656 47.9028 113.656 47.9058 113.656C47.9088 113.656 47.9118 113.656 47.9148 113.656C47.9177 113.656 47.9207 113.656 47.9237 113.656C47.9267 113.656 47.9297 113.656 47.9327 113.656C47.9357 113.656 47.9387 113.656 47.9417 113.656C47.9447 113.656 47.9477 113.656 47.9507 113.656C47.9537 113.656 47.9567 113.656 47.9597 113.656C47.9627 113.656 47.9657 113.656 47.9687 113.656C47.9717 113.656 47.9747 113.656 47.9777 113.656C47.9807 113.656 47.9837 113.656 47.9867 113.656C47.9897 113.656 47.9927 113.656 47.9957 113.656C47.9987 113.656 48.0017 113.656 48.0047 113.656C48.0077 113.656 48.0108 113.656 48.0138 113.656C48.0168 113.656 48.0198 113.656 48.0228 113.656C48.0258 113.656 48.0288 113.656 48.0318 113.656C48.0349 113.656 48.0379 113.656 48.0409 113.656C48.0439 113.656 48.0469 113.656 48.0499 113.656C48.053 113.656 48.056 113.656 48.059 113.656C48.062 113.656 48.065 113.656 48.0681 113.656C48.0711 113.656 48.0741 113.656 48.0771 113.656C48.0802 113.656 48.0832 113.656 48.0862 113.656C48.0892 113.656 48.0923 113.656 48.0953 113.656C48.0983 113.656 48.1014 113.656 48.1044 113.656C48.1074 113.656 48.1105 113.656 48.1135 113.656C48.1165 113.656 48.1195 113.656 48.1226 113.656C48.1256 113.656 48.1287 113.656 48.1317 113.656C48.1347 113.656 48.1378 113.656 48.1408 113.656C48.1438 113.656 48.1469 113.656 48.1499 113.656C48.153 113.656 48.156 113.656 48.159 113.656C48.1621 113.656 48.1651 113.656 48.1682 113.656C48.1712 113.656 48.1743 113.656 48.1773 113.656C48.1804 113.656 48.1834 113.656 48.1865 113.656C48.1895 113.656 48.1925 113.656 48.1956 113.656C48.1986 113.656 48.2017 113.656 48.2048 113.656C48.2078 113.656 48.2109 113.656 48.2139 113.656C48.217 113.656 48.22 113.656 48.2231 113.656C48.2261 113.656 48.2292 113.656 48.2322 113.656C48.2353 113.656 48.2384 113.656 48.2414 113.656C48.2445 113.656 48.2475 113.656 48.2506 113.656C48.2537 113.656 48.2567 113.656 48.2598 113.656C48.2629 113.656 48.2659 113.656 48.269 113.656C48.2721 113.656 48.2751 113.656 48.2782 113.656C48.2813 113.656 48.2843 113.656 48.2874 113.656C48.2905 113.656 48.2935 113.656 48.2966 113.656C48.2997 113.656 48.3028 113.656 48.3058 113.656C48.3089 113.656 48.312 113.656 48.315 113.656C48.3181 113.656 48.3212 113.656 48.3243 113.656C48.3274 113.656 48.3304 113.656 48.3335 113.656C48.3366 113.656 48.3397 113.656 48.3428 113.656C48.3458 113.656 48.3489 113.656 48.352 113.656C48.3551 113.656 48.3582 113.656 48.3613 113.656C48.3643 113.656 48.3674 113.656 48.3705 113.656C48.3736 113.656 48.3767 113.656 48.3798 113.656C48.3829 113.656 48.386 113.656 48.389 113.656C48.3921 113.656 48.3952 113.656 48.3983 113.656C48.4014 113.656 48.4045 113.656 48.4076 113.656C48.4107 113.656 48.4138 113.656 48.4169 113.656C48.42 113.656 48.4231 113.656 48.4262 113.656C48.4293 113.656 48.4324 113.656 48.4355 113.656C48.4386 113.656 48.4417 113.656 48.4448 113.656C48.4479 113.656 48.451 113.656 48.4541 113.656C48.4572 113.656 48.4603 113.656 48.4634 113.656C48.4665 113.656 48.4696 113.656 48.4727 113.656C48.4759 113.656 48.479 113.656 48.4821 113.656C48.4852 113.656 48.4883 113.656 48.4914 113.656C48.4945 113.656 48.4976 113.656 48.5008 113.656C48.5039 113.656 48.507 113.656 48.5101 113.656C48.5132 113.656 48.5163 113.656 48.5195 113.656C48.5226 113.656 48.5257 113.656 48.5288 113.656C48.5319 113.656 48.5351 113.656 48.5382 113.656C48.5413 113.656 48.5444 113.656 48.5475 113.656C48.5507 113.656 48.5538 113.656 48.5569 113.656C48.56 113.656 48.5632 113.656 48.5663 113.656C48.5694 113.656 48.5726 113.656 48.5757 113.656C48.5788 113.656 48.582 113.656 48.5851 113.656C48.5882 113.656 48.5913 113.656 48.5945 113.656C48.5976 113.656 48.6008 113.656 48.6039 113.656C48.607 113.656 48.6102 113.656 48.6133 113.656C48.6164 113.656 48.6196 113.656 48.6227 113.656C48.6259 113.656 48.629 113.656 48.6321 113.656C48.6353 113.656 48.6384 113.656 48.6416 113.656C48.6447 113.656 48.6479 113.656 48.651 113.656C48.6541 113.656 48.6573 113.656 48.6604 113.656C48.6636 113.656 48.6667 113.656 48.6699 113.656C48.673 113.656 48.6762 113.656 48.6793 113.656C48.6825 113.656 48.6856 113.656 48.6888 113.656C48.692 113.656 48.6951 113.656 48.6983 113.656C48.7014 113.656 48.7046 113.656 48.7077 113.656C48.7109 113.656 48.714 113.656 48.7172 113.656C48.7204 113.656 48.7235 113.656 48.7267 113.656C48.7299 113.656 48.733 113.656 48.7362 113.656C48.7393 113.656 48.7425 113.656 48.7457 113.656C48.7488 113.656 48.752 113.656 48.7552 113.656C48.7583 113.656 48.7615 113.656 48.7647 113.656C48.7678 113.656 48.771 113.656 48.7742 113.656C48.7774 113.656 48.7805 113.656 48.7837 113.656C48.7869 113.656 48.79 113.656 48.7932 113.656C48.7964 113.656 48.7996 113.656 48.8028 113.656C48.8059 113.656 48.8091 113.656 48.8123 113.656C48.8155 113.656 48.8186 113.656 48.8218 113.656C48.825 113.656 48.8282 113.656 48.8314 113.656C48.8346 113.656 48.8377 113.656 48.8409 113.656C48.8441 113.656 48.8473 113.656 48.8505 113.656C48.8537 113.656 48.8569 113.656 48.86 113.656C48.8632 113.656 48.8664 113.656 48.8696 113.656C48.8728 113.656 48.876 113.656 48.8792 113.656C48.8824 113.656 48.8856 113.656 48.8888 113.656C48.892 113.656 48.8952 113.656 48.8984 113.656C48.9016 113.656 48.9048 113.656 48.908 113.656C48.9111 113.656 48.9143 113.656 48.9175 113.656C48.9208 113.656 48.924 113.656 48.9272 113.656C48.9304 113.656 48.9336 113.656 48.9368 113.656C48.94 113.656 48.9432 113.656 48.9464 113.656C48.9496 113.656 48.9528 113.656 48.956 113.656C48.9592 113.656 48.9624 113.656 48.9656 113.656C48.9688 113.656 48.9721 113.656 48.9753 113.656C48.9785 113.656 48.9817 113.656 48.9849 113.656C48.9881 113.656 48.9913 113.656 48.9946 113.656C48.9978 113.656 49.001 113.656 49.0042 113.656C49.0074 113.656 49.0106 113.656 49.0139 113.656C49.0171 113.656 49.0203 113.656 49.0235 113.656C49.0267 113.656 49.03 113.656 49.0332 113.656C49.0364 113.656 49.0396 113.656 49.0429 113.656C49.0461 113.656 49.0493 113.656 49.0525 113.656C49.0558 113.656 49.059 113.656 49.0622 113.656C49.0655 113.656 49.0687 113.656 49.0719 113.656C49.0752 113.656 49.0784 113.656 49.0816 113.656C49.0849 113.656 49.0881 113.656 49.0913 113.656C49.0946 113.656 49.0978 113.656 49.101 113.656C49.1043 113.656 49.1075 113.656 49.1108 113.656C49.114 113.656 49.1172 113.656 49.1205 113.656C49.1237 113.656 49.127 113.656 49.1302 113.656C49.1334 113.656 49.1367 113.656 49.1399 113.656C49.1432 113.656 49.1464 113.656 49.1497 113.656C49.1529 113.656 49.1562 113.656 49.1594 113.656C49.1627 113.656 49.1659 113.656 49.1692 113.656C49.1724 113.656 49.1757 113.656 49.1789 113.656C49.1822 113.656 49.1854 113.656 49.1887 113.656C49.1919 113.656 49.1952 113.656 49.1985 113.656C49.2017 113.656 49.205 113.656 49.2082 113.656C49.2115 113.656 49.2148 113.656 49.218 113.656C49.2213 113.656 49.2245 113.656 49.2278 113.656C49.2311 113.656 49.2343 113.656 49.2376 113.656C49.2409 113.656 49.2441 113.656 49.2474 113.656C49.2507 113.656 49.2539 113.656 49.2572 113.656C49.2605 113.656 49.2637 113.656 49.267 113.656C49.2703 113.656 49.2735 113.656 49.2768 113.656C49.2801 113.656 49.2834 113.656 49.2866 113.656C49.2899 113.656 49.2932 113.656 49.2965 113.656C49.2997 113.656 49.303 113.656 49.3063 113.656C49.3096 113.656 49.3129 113.656 49.3161 113.656C49.3194 113.656 49.3227 113.656 49.326 113.656C49.3293 113.656 49.3325 113.656 49.3358 113.656C49.3391 113.656 49.3424 113.656 49.3457 113.656C49.349 113.656 49.3523 113.656 49.3556 113.656C49.3588 113.656 49.3621 113.656 49.3654 113.656C49.3687 113.656 49.372 113.656 49.3753 113.656C49.3786 113.656 49.3819 113.656 49.3852 113.656C49.3885 113.656 49.3918 113.656 49.3951 113.656C49.3984 113.656 49.4017 113.656 49.405 113.656C49.4083 113.656 49.4115 113.656 49.4149 113.656C49.4182 113.656 49.4215 113.656 49.4248 113.656C49.4281 113.656 49.4314 113.656 49.4347 113.656C49.438 113.656 49.4413 113.656 49.4446 113.656C49.4479 113.656 49.4512 113.656 49.4545 113.656C49.4578 113.656 49.4611 113.656 49.4644 113.656C49.4677 113.656 49.471 113.656 49.4744 113.656C49.4777 113.656 49.481 113.656 49.4843 113.656C49.4876 113.656 49.4909 113.656 49.4942 113.656C49.4976 113.656 49.5009 113.656 49.5042 113.656C49.5075 113.656 49.5108 113.656 49.5141 113.656C49.5175 113.656 49.5208 113.656 49.5241 113.656C49.5274 113.656 49.5308 113.656 49.5341 113.656C49.5374 113.656 49.5407 113.656 49.5441 113.656C49.5474 113.656 49.5507 113.656 49.554 113.656C49.5574 113.656 49.5607 113.656 49.564 113.656C49.5673 113.656 49.5707 113.656 49.574 113.656C49.5773 113.656 49.5807 113.656 49.584 113.656V101.656ZM45.6595 101.671C44.8653 101.615 43.9321 101.466 42.8472 101.195L39.9368 112.837C41.5825 113.248 43.2093 113.527 44.8045 113.641L45.6595 101.671ZM36.0254 104.333C35.7365 104.911 35.3176 105.631 34.7357 106.504L44.7203 113.16C45.5037 111.985 46.1942 110.828 46.7586 109.699L36.0254 104.333ZM34.666 106.611C33.458 108.509 32.832 110.65 32.832 112.904H44.832C44.832 112.897 44.8324 112.903 44.8301 112.92C44.8276 112.937 44.8232 112.959 44.816 112.984C44.8088 113.009 44.8008 113.029 44.7941 113.044C44.7875 113.058 44.7847 113.061 44.79 113.053L34.666 106.611ZM32.832 112.904C32.832 115.15 33.5662 117.282 35.0073 119.056C36.3668 120.729 38.1266 121.808 39.8222 122.526L44.4978 111.474C43.9747 111.253 44.0705 111.181 44.3207 111.488C44.4563 111.655 44.5989 111.889 44.7008 112.179C44.8021 112.467 44.832 112.723 44.832 112.904H32.832ZM40.0061 122.6C42.5728 123.587 45.6365 124.472 49.1308 125.278L51.8292 113.586C48.6675 112.856 46.1845 112.119 44.3139 111.4L40.0061 122.6ZM49.2743 125.31C52.623 125.997 56.2677 126.725 60.2079 127.496L62.5121 115.72C58.6016 114.955 54.993 114.233 51.6857 113.554L49.2743 125.31ZM60.332 127.519C63.8313 128.128 66.9932 129.066 69.8425 130.308L74.6375 119.308C70.8308 117.648 66.7393 116.453 62.388 115.697L60.332 127.519ZM70.0117 130.379C72.7526 131.475 74.8194 132.868 76.3661 134.474L85.0099 126.15C82.1193 123.148 78.554 120.871 74.4683 119.237L70.0117 130.379ZM76.3661 134.474C77.323 135.468 78.016 136.908 78.016 139.4H90.016C90.016 134.382 88.4903 129.764 85.0099 126.15L76.3661 134.474ZM78.016 139.4C78.016 141.529 77.4777 143.095 76.5736 144.361L86.3384 151.335C88.8476 147.823 90.016 143.756 90.016 139.4H78.016ZM76.4372 144.56C75.4849 146.013 74.0107 147.358 71.7327 148.497L77.0993 159.231C80.9653 157.298 84.1844 154.632 86.4748 151.136L76.4372 144.56ZM71.5535 148.591C69.2421 149.846 66.2884 150.866 62.5801 151.547L64.7479 163.349C69.4023 162.494 73.6165 161.125 77.2786 159.137L71.5535 148.591ZM62.5801 151.547C58.8088 152.239 54.6114 152.6 49.968 152.6V164.6C55.2233 164.6 60.1565 164.193 64.7479 163.349L62.5801 151.547ZM49.968 152.6C39.628 152.6 32.8368 151.201 28.8511 149.08L23.2129 159.672C29.8085 163.183 38.9746 164.6 49.968 164.6V152.6ZM28.8511 149.08C25.0243 147.043 24.096 144.951 24.096 142.728H12.096C12.096 150.403 16.4583 156.077 23.2129 159.672L28.8511 149.08ZM24.096 142.728C24.096 139.461 25.113 137.665 26.6779 136.429L19.2421 127.011C14.3216 130.895 12.096 136.437 12.096 142.728H24.096ZM26.6779 136.429C29.0927 134.523 32.8555 132.669 38.3264 131.083L34.9856 119.557C28.6805 121.385 23.3127 123.797 19.2421 127.011L26.6779 136.429ZM38.9938 119.794C37.1181 119.001 35.8623 118.24 35.0636 117.591L27.4964 126.905C29.4283 128.474 31.7566 129.762 34.3182 130.846L38.9938 119.794ZM35.0636 117.591C35.1064 117.626 35.1602 117.679 35.2106 117.748C35.2606 117.815 35.2863 117.869 35.295 117.891C35.3106 117.929 35.232 117.761 35.232 117.256H23.232C23.232 120.767 24.3732 124.367 27.4964 126.905L35.0636 117.591ZM35.232 117.256C35.232 117.249 35.2322 117.226 35.2449 117.175C35.2582 117.122 35.29 117.02 35.3666 116.867L24.6334 111.501C23.7546 113.258 23.232 115.195 23.232 117.256H35.232ZM35.4478 116.698C35.6936 116.166 36.0301 115.651 36.4876 115.148L27.6084 107.076C26.3592 108.45 25.3304 109.984 24.5522 111.67L35.4478 116.698ZM36.6573 114.953C37.2249 114.272 37.8276 113.701 38.464 113.224L31.264 103.624C29.8524 104.683 28.5778 105.904 27.4387 107.271L36.6573 114.953ZM38.7051 113.033C39.4987 112.372 40.1575 111.929 40.6811 111.643L34.9349 101.109C33.5811 101.847 32.2773 102.769 31.0229 103.815L38.7051 113.033ZM39.3483 100.577C34.7926 99.367 31.7301 97.4353 29.6994 95.0564L20.5726 102.848C24.5152 107.466 29.9007 110.484 36.2677 112.175L39.3483 100.577ZM29.7545 95.122C27.8113 92.7786 26.784 89.979 26.784 86.408H14.784C14.784 92.565 16.6581 98.1281 20.5175 102.782L29.7545 95.122ZM26.784 86.408C26.784 82.0078 28.3777 78.7818 31.7463 76.1815L24.4137 66.6825C18.0543 71.5915 14.784 78.3495 14.784 86.408H26.784ZM31.7463 76.1815C35.1267 73.5721 40.7609 71.8 49.584 71.8V59.8C39.4631 59.8 30.7613 61.7826 24.4137 66.6825L31.7463 76.1815ZM49.584 71.8H88.496V59.8H49.584V71.8ZM76.576 142.472C76.576 137.99 74.8469 133.997 71.3451 131.079L63.6629 140.297C64.2571 140.793 64.576 141.322 64.576 142.472H76.576ZM71.3253 131.062C68.6609 128.861 65.4403 127.225 61.8494 126.028L58.0546 137.412C60.6077 138.263 62.4218 139.272 63.6827 140.314L71.3253 131.062ZM62.0411 126.095C58.7153 124.86 55.1547 123.881 51.3731 123.143L49.0749 134.921C52.2907 135.548 55.2154 136.361 57.8629 137.345L62.0411 126.095ZM51.3731 123.143C48.0565 122.496 44.9745 121.734 42.1213 120.862L38.6147 132.338C41.9055 133.344 45.3942 134.203 49.0749 134.921L51.3731 123.143ZM37.2991 121.444C33.3711 123.782 29.9193 126.578 27.965 130.068L38.435 135.932C38.87 135.155 40.1969 133.684 43.4369 131.756L37.2991 121.444ZM27.8334 130.317C26.3086 133.366 25.536 136.632 25.536 140.04H37.536C37.536 138.499 37.8728 137.071 38.5666 135.683L27.8334 130.317ZM25.536 140.04C25.536 146.054 28.7175 150.748 33.5838 153.992L40.2402 144.008C37.9385 142.473 37.536 141.194 37.536 140.04H25.536ZM33.5838 153.992C38.575 157.32 45.1526 158.584 52.528 158.584V146.584C46.25 146.584 42.417 145.459 40.2402 144.008L33.5838 153.992ZM52.528 158.584C56.3205 158.584 59.7707 158.265 62.7378 157.496L59.7262 145.88C58.0853 146.305 55.7329 146.584 52.528 146.584V158.584ZM62.5336 157.545C65.2949 156.932 67.9274 155.974 70.1352 154.456L63.3368 144.568C62.8139 144.927 61.7771 145.42 59.9304 145.831L62.5336 157.545ZM69.9955 154.549C72.1232 153.173 74.0816 151.273 75.1949 148.676L64.1651 143.948C64.2545 143.74 64.2501 143.974 63.4765 144.475L69.9955 154.549ZM75.0466 148.995C76.0699 146.949 76.576 144.747 76.576 142.472H64.576C64.576 142.927 64.4847 143.286 64.3134 143.629L75.0466 148.995ZM28.224 86.408C28.224 89.0868 28.5331 91.6728 29.2034 94.1307L40.7806 90.9733C40.4269 89.6765 40.224 88.1665 40.224 86.408H28.224ZM29.2034 94.1307C29.9117 96.7277 31.0779 99.1203 32.7673 101.2L42.0807 93.6324C41.5514 92.9811 41.0963 92.1309 40.7806 90.9733L29.2034 94.1307ZM33.0377 101.51C34.9568 103.566 37.343 105.046 39.9736 106.075L44.3464 94.9005C43.0517 94.3939 42.2805 93.8258 41.8103 93.3221L33.0377 101.51ZM39.9736 106.075C42.8584 107.204 46.137 107.64 49.584 107.64V95.64C47.0577 95.64 45.3869 95.3077 44.3464 94.9005L39.9736 106.075ZM49.584 107.64C55.8945 107.64 61.8727 106.07 65.8755 101.495L56.8445 93.593C56.0686 94.4797 54.1962 95.64 49.584 95.64V107.64ZM65.9351 101.426C69.455 97.2774 70.944 92.0744 70.944 86.408H58.944C58.944 89.9576 58.0437 92.1786 56.7849 93.6621L65.9351 101.426ZM70.944 86.408C70.944 84.4542 70.8527 82.6546 70.6277 81.0795L58.7483 82.7765C58.8646 83.5908 58.944 84.7778 58.944 86.408H70.944ZM70.6728 81.5005C70.5657 80.002 70.3436 78.5389 69.9646 77.1493L58.3874 80.3067C58.5204 80.7945 58.6396 81.4646 58.7033 82.3555L70.6728 81.5005ZM70.0792 77.6547C69.8629 76.4648 69.5673 75.2913 69.154 74.1893L57.918 78.4027C58.0167 78.666 58.1478 79.1139 58.2728 79.8013L70.0792 77.6547ZM69.2281 74.3986C68.9721 73.6306 68.7161 72.8626 68.4601 72.0946L57.0759 75.8894C57.3319 76.6574 57.5879 77.4254 57.8439 78.1934L69.2281 74.3986ZM65.1604 68.4896C62.6319 67.3903 59.9643 66.6884 57.1838 66.3675L55.8083 78.2884C57.465 78.4796 58.9788 78.8871 60.3756 79.4944L65.1604 68.4896ZM57.4083 66.3978C54.8692 66.0071 52.2593 65.816 49.584 65.816V77.816C51.6873 77.816 53.6855 77.9662 55.5837 78.2582L57.4083 66.3978ZM49.584 65.816C43.3205 65.816 37.1294 67.0374 33.1552 71.3173L41.9488 79.4827C42.4119 78.9839 44.2421 77.816 49.584 77.816V65.816ZM33.1552 71.3173C29.4835 75.2714 28.224 80.7072 28.224 86.408H40.224C40.224 82.2101 41.1831 80.3072 41.9488 79.4827L33.1552 71.3173ZM183.318 133V139H189.318V133H183.318ZM151.958 133H145.958V139H151.958V133ZM151.958 126.6V120.6H145.958V126.6H151.958ZM160.406 126.6V132.6H166.406V126.6H160.406ZM157.334 78.728L152.067 81.6011L152.067 81.6011L157.334 78.728ZM139.414 74.248L137.307 68.63L137.267 68.645L137.228 68.6605L139.414 74.248ZM134.038 77.32L130.32 72.6107L130.258 72.6599L130.197 72.7107L134.038 77.32ZM129.942 81.8L125.027 78.3592L124.968 78.4437L124.911 78.5301L129.942 81.8ZM127.382 87.176L121.664 85.3568L121.382 86.2445V87.176H127.382ZM127.382 126.6H121.382V132.6H127.382V126.6ZM135.83 126.6H141.83V120.6H135.83V126.6ZM135.83 133V139H141.83V133H135.83ZM104.47 133H98.47V139H104.47V133ZM104.47 126.6V120.6H98.47V126.6H104.47ZM113.942 126.6V132.6H119.942V126.6H113.942ZM113.942 72.2H119.942V66.2H113.942V72.2ZM104.47 72.2H98.47V78.2H104.47V72.2ZM104.47 65.8V59.8H98.47V65.8H104.47ZM127.382 65.8H133.382V59.8H127.382V65.8ZM127.382 79.112H121.382V85.112H127.382V79.112ZM127.51 79.112V85.112H131.288L132.921 81.7047L127.51 79.112ZM136.086 68.744L132.538 63.9056L132.512 63.9246L132.486 63.944L136.086 68.744ZM160.15 65.8L158.502 71.5691L158.578 71.5911L158.656 71.611L160.15 65.8ZM167.574 70.152L163.158 74.2143L163.202 74.2612L163.246 74.3072L167.574 70.152ZM172.182 78.728L166.413 80.3763L166.431 80.4394L166.45 80.5021L172.182 78.728ZM173.846 126.6H167.846V132.6H173.846V126.6ZM183.318 126.6H189.318V120.6H183.318V126.6ZM183.318 127H151.958V139H183.318V127ZM157.958 133V126.6H145.958V133H157.958ZM151.958 132.6H160.406V120.6H151.958V132.6ZM166.406 126.6V94.472H154.406V126.6H166.406ZM166.406 94.472C166.406 87.2494 165.33 80.8575 162.601 75.8549L152.067 81.6011C153.434 84.1079 154.406 88.2119 154.406 94.472H166.406ZM162.601 75.8549C159.201 69.6202 153.016 67.096 146.07 67.096V79.096C150.046 79.096 151.371 80.3265 152.067 81.6011L162.601 75.8549ZM146.07 67.096C143.028 67.096 140.089 67.587 137.307 68.63L141.521 79.866C142.835 79.3729 144.334 79.096 146.07 79.096V67.096ZM137.228 68.6605C134.725 69.6397 132.415 70.9566 130.32 72.6107L137.756 82.0293C138.903 81.1234 140.177 80.3923 141.6 79.8355L137.228 68.6605ZM130.197 72.7107C128.236 74.3449 126.513 76.2355 125.027 78.3592L134.857 85.2408C135.76 83.9512 136.768 82.8551 137.879 81.9293L130.197 72.7107ZM124.911 78.5301C123.519 80.6723 122.43 82.9505 121.664 85.3568L133.1 88.9952C133.529 87.6469 134.146 86.341 134.973 85.0699L124.911 78.5301ZM121.382 87.176V126.6H133.382V87.176H121.382ZM127.382 132.6H135.83V120.6H127.382V132.6ZM129.83 126.6V133H141.83V126.6H129.83ZM135.83 127H104.47V139H135.83V127ZM110.47 133V126.6H98.47V133H110.47ZM104.47 132.6H113.942V120.6H104.47V132.6ZM119.942 126.6V72.2H107.942V126.6H119.942ZM113.942 66.2H104.47V78.2H113.942V66.2ZM110.47 72.2V65.8H98.47V72.2H110.47ZM104.47 71.8H127.382V59.8H104.47V71.8ZM121.382 65.8V79.112H133.382V65.8H121.382ZM127.382 85.112H127.51V73.112H127.382V85.112ZM132.921 81.7047C134.452 78.5091 136.677 75.8007 139.686 73.544L132.486 63.944C127.986 67.3193 124.493 71.5229 122.099 76.5193L132.921 81.7047ZM139.634 73.5824C142.315 71.6168 145.638 70.52 149.91 70.52V58.52C143.43 58.52 137.537 60.2392 132.538 63.9056L139.634 73.5824ZM149.91 70.52C153.318 70.52 156.16 70.9001 158.502 71.5691L161.798 60.0309C158.167 58.9933 154.182 58.52 149.91 58.52V70.52ZM158.656 71.611C160.595 72.1097 162.031 72.989 163.158 74.2143L171.99 66.0897C169.192 63.0483 165.678 61.0263 161.644 59.989L158.656 71.611ZM163.246 74.3072C164.462 75.5746 165.589 77.4932 166.413 80.3763L177.951 77.0797C176.727 72.7947 174.782 68.996 171.902 65.9968L163.246 74.3072ZM166.45 80.5021C167.319 83.3078 167.846 87.2199 167.846 92.424H179.846C179.846 86.5347 179.264 81.3162 177.914 76.9539L166.45 80.5021ZM167.846 92.424V126.6H179.846V92.424H167.846ZM173.846 132.6H183.318V120.6H173.846V132.6ZM177.318 126.6V133H189.318V126.6H177.318Z" fill="#E4D8B4"/>
</svg>
